<svg xmlns="http://www.w3.org/2000/svg" width="1146" height="1146" fill="none"><path fill="#fff" stroke="#fff" stroke-width="30" d="M419 950c-189-90-255-217-270-243-2-2-2-6 0-9 29-38 112-121 212-219 27-27 188-183 238-276 2-4 7-4 9 0 10 24 31 85 44 134 7 25 25 45 48 58 96 54 109 145 120 159 16 22 122 70 178 111 2 1 3 3 2 6-14 52-87 103-219 74-136-30-177-12-214 0-12 4-91 105-140 202-2 3-5 4-8 3Z"/><g fill="#000" filter="url(#a)"><path d="M372 473c-6 6-9 15-4 23 18 36 79 140 199 232 5 4 11 5 17 4 13-2 32-4 57-4 10 0 19-8 20-18 26-253-21-426-46-489-5-13-20-14-28-2-16 24-32 48-49 69-2 3-2 7-1 10 8 20 19 50 27 84 3 9-8 15-15 10-22-17-40-29-53-37-4-3-9-2-12 2l-31 34-2 8 4 59c0 10-13 14-18 5l-12-22c-3-6-12-8-16-3l-37 35Z"/><path fill-rule="evenodd" d="M768 743c9 2 18-4 22-13 13-41 22-72 28-120 5-34 0-69-17-98-31-56-71-93-102-114-12-9-28 1-26 17 11 105 12 171 3 296-1 10 6 20 17 21l75 11Zm-27-172c0 4 2 7 4 9l9 10c5 5 15 3 16-4 4-23-3-43-11-56-4-7-14-4-14 5l-4 36ZM822 752c-12-1-19-14-15-26 13-39 21-71 27-121 2-16 20-24 33-15s22 13 59 32c19 10 40 19 70 41 3 2 5 7 3 10-14 46-73 89-177 79Zm101-77c0-7 8-12 15-9l14 8c5 3 7 9 3 13-5 6-12 13-21 18-6 3-13-2-12-9l1-21ZM153 714c-4-7-4-16 1-22 29-36 95-103 176-183 10-10 26-7 33 5 33 59 100 155 181 216 9 7 11 21 4 30l-34 46c-3 5-9 6-14 3-27-20-52-40-73-59-4-4-11-3-14 1-17 18-35 43-46 59-3 4-2 10 2 13 26 21 54 41 84 56 5 2 7 9 4 14l-25 44c-5 9-15 13-24 10a641 641 0 0 1-255-233Zm104-23c-6 7-6 16 0 23l33 37c4 4 11 4 15-1 20-26 29-36 51-59 3-3 3-9 0-12l-25-31c-8-10-22-12-31-3-18 17-33 34-43 46Z" clip-rule="evenodd"/></g><defs><filter id="a" width="857.8" height="745.6" x="145.9" y="210.4" color-interpolation-filters="sRGB" filterUnits="userSpaceOnUse"><feFlood flood-opacity="0" result="BackgroundImageFix"/><feColorMatrix in="SourceAlpha" result="hardAlpha" values="0 0 0 0 0 0 0 0 0 0 0 0 0 0 0 0 0 0 127 0"/><feOffset dy="4"/><feGaussianBlur stdDeviation="2"/><feComposite in2="hardAlpha" operator="out"/><feColorMatrix values="0 0 0 0 0 0 0 0 0 0 0 0 0 0 0 0 0 0 0.25 0"/><feBlend in2="BackgroundImageFix" result="effect1_dropShadow_1_52"/><feBlend in="SourceGraphic" in2="effect1_dropShadow_1_52" result="shape"/></filter></defs></svg>
