<svg xmlns="http://www.w3.org/2000/svg" xml:space="preserve" width="566.93" height="755.91"><defs><clipPath id="a" clipPathUnits="userSpaceOnUse"><path d="M.03 566.93H425.2V0H.03Z"/></clipPath></defs><path d="M0 0c.55.57.55 1.38-.02 1.92A75.25 75.25 0 0 1-4.9 6.25c2.27 3.19 6.05 5.9 11.02 7.84 3.98 1.56 8.35 2 12.57 2.42 1.45.15 2.88.29 4.3.48 4.46.58 8.37 1.68 12.33 3.45a99.87 99.87 0 0 1 11.9 6.4c2.34 1.45 4.75 3 6.97 4.74-1.25-4.41-3.17-8.66-5.12-12.65a74.21 74.21 0 0 0-4.1-7.44l-.3-.46c-.76-1.2-1.62-2.57-2.74-3.35a1.18 1.18 0 0 1-.55-1.08c.04-.47.36-.92.82-1.14.27-.12.56-.16.83-.11.07.01.13.03.2.06 6.7.31 12.82 1.37 18.64 3.22a36.65 36.65 0 0 0-3.44-6.9c-1.79-2.86-4.71-5.32-8.93-7.54-2.85-1.49-5.17-2.13-7.3-2.03-.13 0-.23.03-.35.04-.75.27-1.5.56-2.22.9-.69.33-1.43.07-1.76-.62-.32-.67-.15-1.6.69-2l.27-.12a26.06 26.06 0 0 1 6.67-2.04c-4.6-1.72-9.3-3.3-14.08-4.35-5.21-1.15-12.5-2.07-16.48 2.96v.04h-.03c-.13.16-.26.34-.38.52-.29.41-.87.63-1.4.51-.55-.1-.96-.47-1.07-.96-.05-.2-.1-.41-.17-.6l-.06-.02.04-.06c-.85-2.71-2.82-4.8-4.67-6.5a75.4 75.4 0 0 0-3.86-3.3c.3 2.74.1 4.87-.62 6.49-2.03 4.55-7.41 4.6-11.92 3.1-1 1.23-2.11 2.36-3.23 3.4.15.19.28.4.34.67a63.73 63.73 0 0 1 1.14 16.9A70.47 70.47 0 0 0-2.2-.05C-1.5-.73-.54-.56 0 0Zm51.14 8.77a76.4 76.4 0 0 0-5.14-.6c.34.48.65.98.95 1.45l.24.37a75.74 75.74 0 0 1 3.76 6.73c-.76-2.76-.7-5.26.2-7.95zm13.78.91.13.05.59-1.76c.25-.77.5-1.54.77-2.3l.6-1.78c.77-2.21 1.56-4.5 2.21-6.78.42-1.47.73-2.78.95-4.01a29.02 29.02 0 0 0 .35-2.35c.06-.4.25-1.59.16-1.83-.3-.22-2 .48-2.68 1.03-.54.44-1.06.97-1.56 1.5l-.71.72-1.5 1.46a35.84 35.84 0 0 0-4.74 5.17c.45.57.89 1.16 1.28 1.81 2.04 3.34 3.4 6.31 4.15 9.07zm-10.98-.42-.04.2c-.8 2.2-.86 4.22-.2 6.52.34 1.23.73 2.39 1.63 3.08 1.09.84 2.55.71 3.56.32 1.92-.75 3.46-2.6 4.7-5.65.26-.62.48-1.26.71-1.9-.3.12-.63.13-.97.01l-.3-.1-.2.18-.08-.28c-2.83-1-5.76-1.78-8.8-2.38ZM-5.97-18.55l-.74 1.15-.74 1.13c1.96.54 4.3.75 5.92-.08a3.56 3.56 0 0 0 1.83-2.3c.6-2.1.65-5.74-.92-7.62-1.84 2.4-3.54 4.95-5.17 7.45zm55.24-25.73a22.7 22.7 0 0 1 2.63 3.35l.28.41c.86 1.24 1.9 3.11 1.22 5.1-.13.37-.3.72-.51 1.06.12 0 .24 0 .37.03 2.44.7 5.1.04 6.76-1.64a6.74 6.74 0 0 0 1.51-6.97c-.66-1.78-2.07-3.43-4.3-5l-.2-.02.01-.1-.83-.56c-1.01-.63-2.54-1.46-4.14-1.31-1.35.12-2.62.78-3.88 1.46.6 1.52.95 2.9 1.08 4.2zM47.86-21.1A3.97 3.97 0 0 0 47-22.8c-.46-.45-1-.7-1.64-.8l-.04-.01a15.02 15.02 0 0 0 2.63 2.79l-.1-.3zm17-19.07a9.56 9.56 0 0 1-3.67 7.1 9.87 9.87 0 0 1-8.55 1.63c-.65-.18-1-.68-1.09-1.22-.5.5-1.02.94-1.5 1.3l-.26.19.36.55c.47-.19.98-.23 1.46-.1.83.2 1.5.83 1.77 1.68.04.1.05.2.08.3l5.33.71.05.01c.36.07.7.29.92.6.24.35.33.76.24 1.13a1.5 1.5 0 0 1-1.69 1.17l-.88-.12c.52.5 1.03 1.02 1.55 1.6.24.27.34.63.3 1.02-.06.44-.3.84-.63 1.08-.64.44-1.47.3-2.03-.32a17.93 17.93 0 0 0-4.21-3.48l-.18-.12-.19-.1-.18.02c-.22.02-.45 0-.69-.05-.3.04-.6.05-.9 0-.84-.12-1.5-.6-1.8-1.31a1.97 1.97 0 0 1 .1-1.72c.06-.52.28-1 .66-1.39.19-.19.4-.35.62-.47l-.16-.62c-1 .7-2.45 1.43-4.17 1.52a7.7 7.7 0 0 1-2.87-.41c.27 1.63.8 3.18 1.56 4.6.17-.65.76-1.23 1.64-1.1a5.8 5.8 0 0 1 4.5 3.56c.12.3.22.62.32.94.14.46.27.9.48 1.27.32.55.8.93 1.5 1.16.34.1.61.37.77.73.12.29.15.61.1.9 4.67 1.31 9.54.26 13.23-2.51.15-.29.4-.52.71-.66l.2-.07A14.98 14.98 0 0 0 71.5-38.5a15.04 15.04 0 0 0-8.34-8.03l-.37-.13a9.92 9.92 0 0 1 2.07 6.47zm-19.98 7.65c2.6.18 4.69-2.32 5.26-3.09.5-.64.6-1.1.44-1.69a6.24 6.24 0 0 0-.98-1.74l-.4-.57c-.67-.98-1.3-1.9-2.11-2.67-.08-.04-.14-.12-.21-.18a1.26 1.26 0 0 1-.25-.26c-.07-.1-.12-.2-.17-.3-.02-.06-.06-.1-.08-.17-.34-.17-1.32-.02-2.35.35a19.7 19.7 0 0 0-6.55 3.99c-.05.06-.13.12-.22.19l-.27.23.11.16c.34.5.74 1 1.2 1.52 1.31 1.5 3.93 4.04 6.58 4.23zm-7.86-21.74a17.84 17.84 0 0 1 1.03 11.2l.63-.4a18.6 18.6 0 0 1 5.53-2.51c.53-.13 1.1-.19 1.65-.18-.33-1.09-.77-2.1-1.18-2.98a11.32 11.32 0 0 0-4.25-5.08 17.63 17.63 0 0 0-4.55-2.2c.42.69.8 1.4 1.14 2.15zm-16.59 22.3c.89 0 1.76-.09 2.61-.24a6.28 6.28 0 0 0-2.6.24zm-6.07-1.27v-.03c.17-.34.52-.63.9-.74.37-.1.72-.06 1.02.12.42.26.92.17 1.53-.04.28-.1.55-.21.82-.33.47-.19.96-.4 1.48-.53 1.73-.44 3.47-.2 5.1.09.77.14 1.2.76 1.12 1.5a15.13 15.13 0 0 0 8.17-8.34 14.94 14.94 0 0 0-2.23-14.91c-1.9.52-3.8 1.13-5.64 1.72l-2.94.93c-.93.28-1.67-.32-1.89-1.03-.24-.78.14-1.52.92-1.76l5.45-1.68 1.29-.42.44-.15a15.2 15.2 0 0 0-15.55-2.08 15.09 15.09 0 0 0 0 27.68zm68.4-36.02a1.33 1.33 0 0 1-.44-.26l-.7-.22c-.25.01-.52-.03-.77-.18l-.13-.08c-9.26-2.34-18.4 1.85-23.2 4.72-.4.24-.87.25-1.27.03a1.36 1.36 0 0 1-.5-.49c-.61-.31-1.22-.63-1.82-.96-.78-.42-1.59-.84-2.4-1.24l-.08-.01a10.43 10.43 0 0 1-3.7-1.49c-.8-.2-1.61-.34-2.47-.41-.36-.03-.7-.22-.94-.53a1.56 1.56 0 0 1-.31-.8C38.6-82.69 28.14-91.5 14.5-96.06c-3.3-.74-6.8-1.33-10.34-.91a25.7 25.7 0 0 1 4.27 6.94l.12.02-.07.09.23.59c.18.46.08 1-.26 1.38-.33.38-.8.53-1.29.44l-.6-.13-.1.12-.06-.15a58.92 58.92 0 0 0-18.03-.92 30.64 30.64 0 0 1 8.34 9.84l.01.03.1.18c.04.1.05.2.07.31l.02.07v.19c0 .36-.1.68-.34.95v.02l-.12.1-.14.15c-.09.06-.19.1-.3.15-.08.04-.18.06-.28.08h-.01a1.41 1.41 0 0 1-.4.02h-.1a34.1 34.1 0 0 0-21.39 3.8c9.29 6.74 15.81 14.31 19.4 22.54.32.74.01 1.5-.74 1.83-.69.3-1.63.14-2.02-.76-2.29-5.26-5.94-10.28-10.87-15l-.37.91-.24.6a114.88 114.88 0 0 1-1.9 4.2 181.73 181.73 0 0 0-5.07 12.43 165.6 165.6 0 0 0-7.36 26.24c-.66 3.52-1.2 7.63-.2 11.49.66 2.54 2.07 5.58 5.08 5.67 2.59.07 5.15-1.4 7.53-3.02 2.22-1.5 4.3-3.27 6.22-4.97a45.76 45.76 0 0 0 5.25-5.22c.84-1.04 1.59-2.2 2.3-3.32l.82-1.25c1.9-2.9 3.87-5.91 6.08-8.68.57-.7 1.41-.65 1.97-.23.17-.02.34-.01.51.04l.08-.08.39.31a77.5 77.5 0 0 1 9.05 7.32 19.03 19.03 0 0 1 4.18 5.45c4.4-4.16 11.19-3.97 16.4-2.97 7.81 1.51 15.33 4.46 22.6 7.31l.52.06-.05.15c.49.3.71.85.57 1.43-.15.6-.7 1.18-1.47 1.16l-.03.07-.23-.1a23.17 23.17 0 0 0-3.81-.07c1.56.63 3.18 1.5 4.94 2.65 1.35.88 2.8 1.9 4.16 3.18 1.5-2.06 3.41-3.9 5.29-5.67.6-.57 1.19-1.12 1.76-1.68l.45-.46c.59-.61 1.2-1.24 1.98-1.65 1.2-.63 2.91-1.42 4.32-1.17l.33.08c.64.2 1.13.61 1.45 1.24.54 1 .37 2.39.24 3.5l-.06.5a35.71 35.71 0 0 1-1.14 5.8c-.74 2.72-1.68 5.42-2.58 8.04l-.72 2.09c-.24.7-.48 1.47-.73 2.27-1.58 5.07-3.74 12.02-9.84 12.89a5.96 5.96 0 0 1-5.6-2.17c1.41 3 2.78 6.28 3.81 9.7 6.94-3.58 11.22-10.61 15.33-18.13 4.47-8.2 8.34-16.8 11.5-25.57l1.12-3.3 1-2.96.28-.75.32-.9.04-.12.13-.37a48.44 48.44 0 0 0-16.96 3.47 18.19 18.19 0 0 1-18.28 2.96A17.94 17.94 0 0 1 39.5-31.66c-1.38-.99-2.6-2.2-3.57-3.32l-.17-.19c-.27-.3-.6-.68-.9-1.08a18.2 18.2 0 0 1-21.12 5.97 17.97 17.97 0 0 1-9.97-9.6 17.96 17.96 0 0 1 9.39-23.75 18.07 18.07 0 0 1 20.18 3.95 7.55 7.55 0 0 1 2.07.08c1.15.2 2.44.67 3.81 1.34a1.32 1.32 0 0 1 .51-1.8 14.24 14.24 0 0 1 10.24-1.61c3.16.72 6.88 2.75 7.84 6.32.25.92-.38 1.68-1.13 1.88-.77.2-1.47-.2-1.68-.96-.67-2.5-3.45-3.9-5.83-4.4-2.68-.57-5.53-.1-7.81 1.23-.18.1-.37.16-.55.2.4.23.8.45 1.21.72a13.78 13.78 0 0 1 4.94 5.53c2.13-1.12 4.4-2.04 6.91-1.6.3.06.62.13.93.23 1.18.36 2.4.97 3.6 1.77l.32.05c1.64.29 4.25.94 5.52 1.43a17.97 17.97 0 0 1 9.98 9.6 17.86 17.86 0 0 1-1.17 16.6c6.99-2 14.8-2.5 23.36-1.5a34.07 34.07 0 0 0-13.13-17.4c-.42-.28-.65-.7-.62-1.16.01-.15.05-.3.11-.43.1-.42.4-.79.91-.97a31.26 31.26 0 0 1 13.58-1.52 35.65 35.65 0 0 0-12.14-11.68l-.14.05v-.13l-.35-.2c-.49-.27-.77-.81-.72-1.37.04-.53.37-.95.88-1.13l.32-.11.01-.25.27.15c2.37-.78 4.79-1.3 7.24-1.56-2.72-2.8-5.91-5.56-9.87-6.98zm-20.82-8.92c-.12.34-.27.68-.41 1.02-.2.45-.37.87-.5 1.3-.21.7-.32 1.42-.43 2.17l-.11.8c-.2 1.22-.54 2.64-1.31 3.85 5.62-2.83 11.24-4.21 16.5-4.1l-1.7-1.09a238.3 238.3 0 0 0-11.66-7.08c.15.94.04 1.98-.38 3.13zm-16.04 4.6c.1-.71.32-1.43.58-2.12l2.2-5.95c.6-1.63 1.23-3.32 3.06-4.23.11-.06.24-.1.35-.15a56.43 56.43 0 0 0-19.07-3.17A47.96 47.96 0 0 1 45.9-73.58zm3.16-.6c-.21.57-.42 1.12-.22 1.6.08.17.2.33.32.47.78.23 1.55.5 2.3.85.79.35 1.56.74 2.32 1.14.25.04.5.14.7.3.64.48 1.57-.02 1.99-.5.77-.9.97-2.22 1.15-3.38a17.91 17.91 0 0 1 1.24-4.71c.4-.9.81-1.85.5-2.64-.35-.9-1.56-1.46-2.36-1.83-1.4-.65-2.5-.83-3.45-.56-1.09.3-1.47 1.14-1.94 2.39zm50.72 50.52c.14.52 0 1.04-.36 1.42-.26.52-.8.9-1.52.8a70.5 70.5 0 0 0-8.56-.69c-.1.41-.25.81-.4 1.17l-.18.5-.05.14-1.34 3.9a183.46 183.46 0 0 1-12.26 28.4l-.23.43c-2.13 3.98-4.33 8.09-7.19 11.67-3.22 4.03-6.72 6.98-10.4 8.8.14.62.27 1.26.39 1.89.22.36.29.78.17 1.2-.15.54-.58.97-1.1 1.1-.45.12-.91-.03-1.27-.39-2.7-2.77-6.05-4.97-8.97-6.82-3.96-2.5-7.92-4.67-11.78-6.45a41.53 41.53 0 0 0-12.48-3.55c-1.31-.17-2.63-.3-3.95-.44-4.4-.46-8.93-.93-13.18-2.56-3.88-1.48-9.06-4.22-12.35-8.8-1.3.97-2.63 1.92-3.98 2.8l-.02.25-.18-.12-.38.25c-.5.31-1.08.33-1.56.04-.5-.3-.79-.87-.74-1.47l.04-.5-.1-.06.11-.08c.5-6.42.23-12.28-.77-17.45a61.69 61.69 0 0 1-6.43 5.15c-2.19 1.48-5.1 3.21-8.26 3.5a7.07 7.07 0 0 1-5.83-1.98c-3.16-3.09-3.91-9.24-3.6-13.57.33-4.57 1.47-9.1 2.57-13.49l.06-.2a186.36 186.36 0 0 1 10.37-29.98l.95-2.1c.45-.98.9-1.97 1.34-2.97l.24-.62c.2-.53.43-1.11.72-1.63a78.73 78.73 0 0 0-6.83-5.3 1.3 1.3 0 0 1-.59-1.18c0-.11.04-.22.07-.32-.03-.49.18-.96.65-1.26a37.67 37.67 0 0 1 22.04-5.52 27.66 27.66 0 0 0-7.92-7.83c-.6-.4-.85-1-.72-1.6l-.05-.13c-.1-.68.27-1.48 1.17-1.62a61.25 61.25 0 0 1 19.97.23 22.78 22.78 0 0 0-4.57-6.12 1.5 1.5 0 0 1-.4-1.44c.12-.45.44-.77.89-.89l.56-.13.05-.28.23.22c3.71-.77 7.3-.5 10.55.08.94.16 1.84.35 2.71.55l.14.05.13.03a57.95 57.95 0 0 1 13.97 6.77c.19-.1.39-.17.62-.19a59.06 59.06 0 0 1 30.08 6.18c5.3 2.68 10.37 5.91 15.28 9.03 2.24 1.43 4.56 2.9 6.87 4.3.23.15.4.34.52.54l.53.17c.11 0 .22-.03.33 0 .08 0 .17.03.25.06 5.11 1.83 8.92 5.55 12.34 9.3h.18l-.06.12.38.42c.32.35.39.87.18 1.35-.22.5-.68.84-1.18.85-.2 0-.4 0-.6.02l-.03.05-.04-.05c-2.19.09-4.34.4-6.44.92a38.19 38.19 0 0 1 12.28 13.41c.25.46.23.98-.04 1.42-.17.28-.42.48-.7.6l-.02.02c-.33.4-.82.57-1.34.47a28.22 28.22 0 0 0-11.26.32 36.87 36.87 0 0 1 12.28 18.9" style="fill:#9b50ff;fill-opacity:.1;fill-rule:nonzero;stroke:none" transform="matrix(1.3 0 0 -1.3 58.9 267.8)"/><path d="M0 0s-.07-.01-.28.08C-.52.2-.96.85-1.2 1.2l-.3.44c-2.94 3.85-4.95 8.5-6.88 13-.53 1.2-1.05 2.42-1.58 3.6l-.66 1.42c-1.14 2.43-2.32 4.94-2.37 7.55-.03 1.9.77 3.74 1.99 4.6.36.27.76.43 1.18.5.57.1 1.18.04 1.84-.2 3.33-1.22 5.42-4.79 6.37-6.8C-.1 22.1.55 18.51 1.2 15.05l.03-.17c.38-2.34.23-4.89.09-7.35-.04-.74-.09-1.47-.11-2.2-.02-.31-.02-.64-.02-.97 0-.68 0-1.39-.11-2-.1-.49-.36-1-.62-1.5L.21.39A1.94 1.94 0 0 0 0 0Zm-5.89 34.27c-3.05 1.6-6.3 1-8.27-1.5-2.5-3.18-1.66-7.41-.94-9.65.9-2.8 2.2-5.53 3.45-8.17.49-1.02.97-2.03 1.43-3.04l.3-.68c1.43-3.17 2.9-6.45 4.84-9.43l.27-.42c1-1.57 2.66-4.2 4.62-4.4.2-.02.42-.01.62.02.54.1 1.04.39 1.5.87a8.23 8.23 0 0 1 2 4.62c.13 1.93.17 3.9.21 5.8l.02.7.03 1.14c.06 1.72.12 3.5-.16 5.2v.05l-.01.05c-1.11 6.03-2.8 15.1-9.9 18.84" style="fill:#9b50ff;fill-opacity:.1;fill-rule:nonzero;stroke:none" transform="matrix(1.3 0 0 -1.3 37.13 328.06)"/><path d="M0 0a9.1 9.1 0 0 1 2.87-.16c-.4-.19-.82-.36-1.25-.5a1.3 1.3 0 0 1-.76-.75c-.17-.4-.17-.87.01-1.24.3-.62.94-.92 1.63-.8.1.02.2.04.3.08C4.4-2.81 5.88-2 7.32-1.2A49 49 0 0 0 9.89.15a2.64 2.64 0 0 1 1.42-.03c1.17.32 2.38 1.33 2.42 2.65a2.23 2.23 0 0 1-1.76 2.33v.09l-.04-.08-.23.05c-1.22.2-2.7-.25-3.36-1.37l-3.98-.77C3.2 2.79 1.99 2.55.9 2.8.08 3-.67 2.63-.94 1.9c-.14-.38-.1-.86.1-1.25C-.63.32-.34.08 0 0" style="fill:#9b50ff;fill-opacity:.1;fill-rule:nonzero;stroke:none" transform="matrix(1.3 0 0 -1.3 80.92 322.49)"/><path d="M0 0c.76-.24 1.48.12 1.72.87a74.96 74.96 0 0 1 1.73 6.28c3.88-.62 8-2.8 11.95-6.38 3.16-2.86 5.5-6.57 7.74-10.15.77-1.22 1.54-2.44 2.34-3.63a42.6 42.6 0 0 1 8.57-9.48 99.87 99.87 0 0 1 11.02-7.79 76.16 76.16 0 0 1 7.36-4.12c-4.53-.84-9.2-1-13.66-1.03-3.27-.02-5.97.1-8.52.37l-.53.06c-1.43.14-3.04.3-4.24.96-.4.23-.84.23-1.21.01a1.42 1.42 0 0 1-.4-2.02c.04-.06.1-.1.14-.15a71.59 71.59 0 0 1 11.17-15.22c-2.32-.27-4.9-.26-7.74.01-3.37.33-6.88 1.85-10.74 4.64-2.6 1.88-4.21 3.67-5.06 5.62-.06.11-.08.22-.13.33-.09.79-.15 1.58-.16 2.38-.02.76-.58 1.3-1.35 1.29-.74-.01-1.5-.57-1.5-1.5l.02-.29a25.83 25.83 0 0 1 1.11-6.86A104.78 104.78 0 0 0-.51-35.15C-3.86-31-7.92-24.9-5.15-19.13l.04.01-.02.03.3.57c.25.44.19 1.06-.15 1.47-.34.45-.86.66-1.35.54l-.62-.12-.04.06-.04-.07c-2.8-.45-5.55.4-7.9 1.3-1.55.59-3.1 1.24-4.68 1.98 2.6.94 4.41 2.07 5.55 3.43 3.2 3.82.86 8.65-2.49 12a36.05 36.05 0 0 1 1.64 4.4c.23-.05.48-.07.75 0a64.42 64.42 0 0 1 15.73 6.46 70 70 0 0 0-2.6-10.99C-1.33 1.04-.74.24 0 0Zm30.55-41.78a75.36 75.36 0 0 0-2.82 4.32c.58-.08 1.17-.15 1.73-.2l.44-.05c2.3-.24 4.78-.36 7.72-.38a13.27 13.27 0 0 1-7.07-3.7zm6.92-11.9.1-.1-1.32-1.3-1.74-1.71-1.32-1.33a127.6 127.6 0 0 0-5.13-4.97 41.74 41.74 0 0 0-3.2-2.62c-.5-.38-1.03-.74-1.56-1.08l-.4-.28a7.77 7.77 0 0 0-1.57-.95c-.33.17-.45 2-.26 2.85.15.68.4 1.38.66 2.05l.34.96.64 1.98a35.73 35.73 0 0 0 2.56 6.53c.7-.15 1.44-.28 2.2-.35 3.9-.33 7.18-.23 10 .32zm-5.24 9.62.15.12a10.15 10.15 0 0 0 5.8 3.08c1.25.23 2.46.4 3.48-.1 1.24-.6 1.78-1.96 1.87-3.04.18-2.05-.8-4.24-3-6.7-.45-.5-.92-.99-1.4-1.47-.02.31-.16.62-.42.87l-.23.22.08.27-.29-.07a62.61 62.61 0 0 0-6.04 6.82zM-19.34-2.88l.7 1.17.7 1.16c1.35-1.51 2.58-3.52 2.55-5.32a3.56 3.56 0 0 0-1.27-2.66c-1.62-1.46-4.87-3.12-7.26-2.55a124 124 0 0 0 4.4 7.92zm1.3-60.72c1.37-.46 2.8-.68 4.19-.87l.49-.07c1.49-.22 3.64-.33 5.13 1.18.27.27.5.58.72.91.06-.1.1-.22.2-.31a6.87 6.87 0 0 0 1.51-6.77 6.78 6.78 0 0 0-5.6-4.43c-1.9-.2-4 .33-6.4 1.63l-.11.16-.09-.05-.87.5c-1.02.62-2.43 1.62-3.02 3.11-.48 1.26-.45 2.69-.4 4.11 1.63.15 3.04.44 4.25.9zM2.2-52.08a4.01 4.01 0 0 0-1.9.02c-.6.21-1.07.57-1.44 1.1l-.03.04a15.1 15.1 0 0 0 3.67-1.12l-.3-.04zm-9.63-23.64a9.57 9.57 0 0 1 4.76 6.43c.6 2.92-.3 6.12-2.32 8.36a1.5 1.5 0 0 1-1.58.42c.23.67.4 1.34.51 1.92l.06.32.65-.07c.04-.5.22-.98.55-1.36a2.56 2.56 0 0 1 2.3-.83c.11.01.2.04.3.06L.8-64.9l.03-.05c.22-.29.56-.5.96-.55.4-.06.81.04 1.11.28.63.51.76 1.36.31 2.03l-.5.74c.67-.25 1.37-.48 2.12-.68.35-.1.73-.02 1.06.2.37.23.62.62.69 1.03.11.76-.38 1.45-1.19 1.66a18 18 0 0 0-5 2.22l-.18.12-.19.11a3.03 3.03 0 0 1-.8 1.57c-.48.7-1.2 1.07-1.98 1.03a2 2 0 0 1-1.5-.85c-.44-.29-.77-.7-.96-1.2-.09-.26-.14-.51-.15-.77l-.62-.13c.17 1.2.2 2.82-.48 4.4-.39.9-.96 1.69-1.65 2.38 1.59.48 3.22.7 4.84.65-.52-.44-.78-1.23-.28-1.96l.1-.15a5.83 5.83 0 0 1 5.1-2.3c.33.03.67.09 1 .14.48.08.92.16 1.36.13.63-.04 1.19-.3 1.7-.82.25-.26.6-.39 1-.36.31.01.62.13.86.31a15.07 15.07 0 0 0 3.6-12.93c-.2-.27-.3-.58-.28-.93l.02-.2A15.09 15.09 0 0 0-2.97-80.9a15.1 15.1 0 0 0-10.93 3.89l-.28.27c2.44-.43 4.75-.1 6.74 1.02zM-9.4-54.48c1.3-2.24-.01-5.21-.45-6.07-.37-.72-.73-1.03-1.33-1.13a6.28 6.28 0 0 0-2 .1l-.7.1c-1.17.16-2.28.32-3.33.7-.07.06-.17.08-.26.11a1.17 1.17 0 0 1-.69.12h-.18c-.3.23-.6 1.17-.73 2.25a18.92 18.92 0 0 0 .7 7.61l.06.29.09.35.2-.03c.59-.09 1.22-.22 1.89-.4 1.94-.5 5.38-1.72 6.73-4zm-23.06-2.61a18 18 0 0 1 10.55 4.04l-.1-.74c-.25-2.38-.19-4.36.2-6.05.12-.54.32-1.06.57-1.55a23.08 23.08 0 0 0-3.2-.27 11.4 11.4 0 0 0-6.46 1.55 17.55 17.55 0 0 0-4 3.08c.8-.07 1.62-.1 2.44-.06zm12.73 24.68c.39-.79.7-1.6.94-2.43a6.22 6.22 0 0 0-.94 2.43zm-3.84 4.87-.01-.02c-.24-.3-.35-.74-.28-1.14.07-.36.27-.66.56-.84.43-.27.56-.75.64-1.4.04-.28.06-.58.08-.87.03-.5.06-1.03.17-1.56.37-1.74 1.35-3.18 2.34-4.51a1.33 1.33 0 0 1 1.85-.34 15.07 15.07 0 0 0-18.3-15.6c-.37 1.93-.67 3.89-.96 5.8l-.46 3.04c-.16.95-1.02 1.35-1.76 1.23a1.36 1.36 0 0 1-1.18-1.6l.9-5.62.2-1.33.06-.46a15.22 15.22 0 0 0-3.8 2.51c-3 2.7-4.77 6.42-4.97 10.45-.2 4.03 1.2 7.9 3.92 10.88 5.5 6.04 14.8 6.6 21 1.38zm-2.12-77.04c-.13.13-.28.22-.43.28l-.5.52c-.1.24-.26.46-.51.62l-.13.08c-6.21 7.23-6.48 17.24-6.03 22.81.04.47-.16.88-.54 1.14-.2.14-.42.22-.66.24l-1.66 1.2a95.3 95.3 0 0 0-2.19 1.58l-.04.07a10.4 10.4 0 0 1-2.97 2.64 15.4 15.4 0 0 0-1.47 2.03c-.2.3-.51.53-.9.6-.3.06-.6.03-.86-.07-12.75-.25-25.32 5.18-35.46 15.34-2.13 2.63-4.2 5.49-5.4 8.83 2.67-.68 5.4-.93 8.14-.74l.08-.1.04.1.64.06a1.37 1.37 0 0 1 .95 2.2l-.39.47.06.14-.15-.02a58.36 58.36 0 0 0-8.82 15.7 30.85 30.85 0 0 1 12.56-3.09h.24c.1 0 .2.04.3.07l.07.02.17.08c.33.15.57.4.71.72l.02.02.04.15c.02.06.06.11.07.18a1.37 1.37 0 0 1-.05.62v.02a1.43 1.43 0 0 1-.16.35c-.03.03-.04.07-.06.1a33.74 33.74 0 0 0-6.04 20.78c10.17-5.3 19.89-7.78 28.88-7.34.8.04 1.36.66 1.32 1.48-.03.74-.6 1.5-1.57 1.46-5.75-.28-11.89.75-18.33 3.07l.66.73.44.48A117.54 117.54 0 0 1-62.7-5.4a183 183 0 0 0 8.94 10.03 166.57 166.57 0 0 0 20.36 18.2c2.88 2.14 6.35 4.44 10.26 5.25 2.58.54 5.94.63 7.35-2.02 1.22-2.28 1.02-5.22.63-8.06a61.22 61.22 0 0 0-1.73-7.75 45.67 45.67 0 0 0-2.37-7c-.56-1.22-1.28-2.4-1.96-3.53l-.77-1.28c-1.78-2.99-3.61-6.08-5.12-9.28-.39-.82.03-1.55.66-1.86.06-.16.14-.3.26-.44l-.04-.1.46-.21a77.69 77.69 0 0 1 10.6-4.84A19.14 19.14 0 0 1-8.4-19.6c-1.8-5.78 1.38-11.75 4.59-15.96C1-41.87 6.99-47.27 12.78-52.5l.28-.44.12.12c.48-.3 1.07-.27 1.53.12.47.4.75 1.15.4 1.82l.05.06-.19.17a22.89 22.89 0 0 0-1.75 3.36 28.82 28.82 0 0 1 4.56-3.24c1.4-.81 2.96-1.64 4.71-2.3a42.6 42.6 0 0 1-2.76-7.24c-.24-.78-.48-1.56-.73-2.3l-.22-.62a8.08 8.08 0 0 1-.6-2.5c-.04-1.35.01-3.22.86-4.37l.21-.26a2.41 2.41 0 0 1 1.76-.75c1.15-.03 2.32.73 3.26 1.34l.42.27c1.5.94 3.04 2.1 4.72 3.59 2.12 1.86 4.14 3.9 6.1 5.87l1.55 1.57c.53.52 1.12 1.08 1.73 1.65 3.86 3.66 9.16 8.66 7.25 14.5a5.94 5.94 0 0 1-4.44 4.03c3.33.08 6.88.3 10.42.9-.15-7.79-4.59-14.72-9.54-21.71a182.92 182.92 0 0 0-20.4-24.06c-.74-.73-1.48-1.46-2.2-2.2l-.57-.59-.66-.68-.1-.1-.27-.27c-2.55 5.6-4.01 11.17-4.38 16.68a18.05 18.05 0 0 1-5.44 17.64A18.06 18.06 0 0 1-11-49.31c-1.5.8-3.13 1.35-4.57 1.73l-.24.06c-.4.1-.88.23-1.37.32a18.02 18.02 0 0 1-17.04 26.16 18.03 18.03 0 0 1-17.22-18.9 17.88 17.88 0 0 1 5.92-12.5c1.93-1.73 4.16-3 6.56-3.78.23-.6.55-1.2 1-1.8.69-.95 1.68-1.89 2.9-2.82-.76.02-1.35-.49-1.4-1.25a14.09 14.09 0 0 1 3.08-9.86c2.05-2.5 5.53-4.92 9.16-4.2a1.54 1.54 0 0 1 1.2 1.84 1.33 1.33 0 0 1-1.61 1.08c-2.54-.5-5.05 1.35-6.55 3.26a10.96 10.96 0 0 0-2.35 7.52c.02.2-.01.4-.07.57.39-.25.77-.5 1.2-.76 2.19-1.3 4.41-1.9 7.17-1.96-.07-2.4.1-4.83 1.61-6.88.19-.25.39-.49.62-.73.85-.89 1.94-1.71 3.18-2.42l.2-.27a36.7 36.7 0 0 1 3.73-4.3 18.05 18.05 0 0 1 13.06-4.65 18.03 18.03 0 0 1 14.43 8.39c1.3-7.12 4.3-14.33 8.99-21.52A34.32 34.32 0 0 0-.9-92.96c-.43.25-.91.26-1.31.03a1.33 1.33 0 0 1-.34-.28c-.32-.28-.53-.7-.46-1.24a30.95 30.95 0 0 1 4.64-12.8 35.82 35.82 0 0 0-15.89 5.66l-.02.16-.11-.07-.34.23c-.46.31-1.07.33-1.56.04a1.29 1.29 0 0 1-.62-1.3l.04-.33-.21-.12.25-.17c.34-2.46.94-4.85 1.8-7.15-3.73 1.18-7.62 2.81-10.66 5.72zm-17.25 14.64c.25.26.5.54.73.82.32.37.62.72.95 1.03.54.5 1.14.9 1.77 1.34l.66.45a10.1 10.1 0 0 1 2.9 2.88c-.07-6.28 1.18-11.9 3.6-16.55l-1.72 1.04a237.9 237.9 0 0 0-11.54 7.27c.9.28 1.8.84 2.65 1.72zm-2.96 16.37c-.6-.4-1.15-.93-1.66-1.46l-4.38-4.6c-1.2-1.27-2.44-2.57-2.46-4.6l.03-.39A56 56 0 0 0-65.67-69a48.26 48.26 0 0 1 19.77-4.57zm.85-3.1c.43.45.82.88 1.34.9.2.02.39-.02.57-.07.55-.6 1.15-1.16 1.78-1.68.67-.54 1.36-1.05 2.06-1.56.14-.2.34-.38.58-.5.71-.35.67-1.4.42-2-.46-1.08-1.55-1.84-2.52-2.5a18 18 0 0 1-3.7-3.2c-.64-.76-1.3-1.55-2.14-1.62-.97-.09-2.01.74-2.7 1.3-1.2.96-1.85 1.86-2.03 2.82-.22 1.11.37 1.83 1.29 2.8zm67.95-22.9c.53.1.93.45 1.12.95.35.45.46 1.1.04 1.7a69.73 69.73 0 0 0-4.4 7.34c.31.28.6.59.87.87l.37.4.1.1 2.91 2.92a184.3 184.3 0 0 1 20.14 23.52l.29.4c2.63 3.67 5.36 7.46 7.32 11.59 2.2 4.66 3.3 9.1 3.31 13.2.63.14 1.26.3 1.88.48.42-.04.83.08 1.15.38.42.37.62.95.51 1.46-.1.46-.43.81-.92.97-3.69 1.18-7.15 3.2-10.11 4.99-4 2.42-7.71 5-11.02 7.66a41.3 41.3 0 0 0-8.73 9.57c-.73 1.1-1.44 2.22-2.15 3.34C23.23-4.02 20.8-.17 17.45 2.9c-3.06 2.8-7.81 6.22-13.4 7.13.3 1.6.57 3.2.76 4.8l.21.12-.18.1.05.46c.07.58-.18 1.1-.65 1.4-.5.32-1.13.33-1.65.01l-.42-.25-.12.07-.01-.15a66.57 66.57 0 0 0-16.06-7.04c.75 2.67 1.42 5.3 1.8 8.02.36 2.62.63 6-.52 8.93a7.04 7.04 0 0 1-4.35 4.33c-4.18 1.46-10.06-.6-13.82-2.8-3.97-2.3-7.54-5.34-11-8.27l-.16-.13a187.34 187.34 0 0 1-22.4-22.54l-1.46-1.78A147 147 0 0 0-68-7.2l-.45-.5c-.4-.4-.82-.87-1.15-1.36a78.84 78.84 0 0 0-7.8 3.75c-.44.25-.92.25-1.33 0-.09-.05-.17-.12-.25-.2a1.34 1.34 0 0 1-.84-1.13c-.78-7.6 1-15.65 4.78-22.13-3.76.5-7.36 1.7-10.55 3.6-.62.36-1.28.32-1.76-.06-.05-.01-.09 0-.14-.02-.66-.2-1.21-.9-.94-1.75a60.72 60.72 0 0 1 9.05-17.73c-2.57.03-5.1.49-7.53 1.36-.49.18-1.08.07-1.48-.28a1.2 1.2 0 0 1-.4-1.18l.13-.57-.22-.16.3-.1a27.42 27.42 0 0 1 4.74-9.4c.56-.76 1.13-1.49 1.7-2.18l.1-.1.08-.1a57.78 57.78 0 0 1 12.28-9.48c0-.2.02-.42.11-.62a58.78 58.78 0 0 1 18.89-24.13c4.76-3.55 9.91-6.65 14.9-9.65 2.27-1.37 4.63-2.78 6.91-4.22.24-.15.48-.22.72-.23l.38-.4c.04-.1.07-.2.14-.3l.17-.2c3.92-3.75 8.95-5.5 13.84-6.9l.07-.16.1.12.53-.16c.47-.13.96.04 1.3.44.36.42.46.98.24 1.43l-.25.55.04.04-.07.02a31.85 31.85 0 0 0-2.02 6.15 38.42 38.42 0 0 1 17.52-5.02c.52-.02.98.22 1.26.67.17.27.24.58.22.89l.02.02c.2.47.14.98-.18 1.41a27.94 27.94 0 0 0-4.7 10.2 37.17 37.17 0 0 1 22.45-2.6" style="fill:#9b50ff;fill-opacity:.1;fill-rule:nonzero;stroke:none" transform="matrix(1.3 0 0 -1.3 484.6 597.07)"/><path d="M0 0s-.04.06-.05.28c0 .28.39.95.6 1.32.1.18.2.34.26.47 2.17 4.33 5.46 8.18 8.65 11.9A95.84 95.84 0 0 1 13 18.19c1.68 2.1 3.42 4.26 5.75 5.46 1.7.86 3.71.97 5.03.27.4-.21.72-.5.97-.83a3.5 3.5 0 0 0 .63-1.74c.38-3.52-1.9-6.96-3.3-8.7-2.22-2.77-5.15-4.94-7.98-7.04l-.15-.1c-1.93-1.38-4.3-2.38-6.57-3.34L5.34 1.3 4.46.88C3.83.58 3.2.27 2.6.09A5.9 5.9 0 0 0 .98 0H.44C.28-.03.05-.03 0 0Zm28.24 20.43c.09 3.44-1.88 6.07-5.02 6.72-3.96.83-7.4-1.8-9.1-3.43-2.12-2.05-4-4.41-5.82-6.7L6.2 14.4l-.48-.57C3.5 11.15 1.2 8.38-.63 5.33l-.26-.42C-1.86 3.32-3.49.67-2.8-1.16c.07-.2.17-.39.3-.55.32-.44.8-.76 1.44-.96a8.3 8.3 0 0 1 5.04.27c1.8.73 3.59 1.57 5.31 2.37l.64.3 1.05.47c1.57.72 3.2 1.45 4.6 2.45l.05.03.04.03c4.93 3.66 12.36 9.18 12.57 17.18" style="fill:#9b50ff;fill-opacity:.1;fill-rule:nonzero;stroke:none" transform="matrix(1.3 0 0 -1.3 420.7 604.32)"/><path d="M0 0c.23-.98.64-1.84 1.13-2.64-.35.29-.7.58-1.01.9A1.3 1.3 0 0 1-.9-1.4 1.56 1.56 0 0 1-2-1.95a1.45 1.45 0 0 1 0-1.8c.06-.09.13-.16.2-.24C-.58-5.17.82-6.14 2.17-7.07c.78-.54 1.58-1.1 2.34-1.7a2.6 2.6 0 0 1 .61-1.28c.8-.9 2.25-1.53 3.45-.98a2.23 2.23 0 0 1 1.32 2.6l.09.04h-.1a3 3 0 0 1-.06.23c-.35 1.18-1.42 2.3-2.72 2.4l-2.46 3.2c-.71.94-1.46 1.9-1.72 3-.19.81-.85 1.33-1.61 1.25-.41-.05-.83-.3-1.08-.65C0 .72-.08.35 0 0" style="fill:#9b50ff;fill-opacity:.1;fill-rule:nonzero;stroke:none" transform="matrix(1.3 0 0 -1.3 445.11 640.95)"/><path d="M0 0c.85-2.37 1.88-2.83 3.36-2.8C4.4-2.8 5.9-2.48 6.65.06c.2.66.36 1.41.51 2.35a24.7 24.7 0 0 0 4.4 10.71c3.65 5.07 5.06 6.73 7.63 9.74.95 1.12 2.07 2.43 3.54 4.2 3.86 4.62 8.77 9.6 15.93 11.48.53.14 1.2.74 1.42.94 1.04.92 1.35 1.93.97 3.19-.71 2.35-1.92 2.42-2.37 2.45-2.97.18-4.72 1.6-5.66 4.63a2.82 2.82 0 0 1-1.53 1.8c-.84.38-1.88.35-2.86-.09-1.6-.7-2.08-2.1-2.41-4.44a25.26 25.26 0 0 0-4.79-11.65 122.74 122.74 0 0 0-8.38-10.56l-1.82-2.1-1.1-1.3c-2.15-2.55-4.38-5.18-7.29-7.22a28.22 28.22 0 0 0-6.23-3.03c-.68-.26-1.37-.53-2.04-.81-1.74-.73-2.7-2.22-2.47-3.8.31-2.09 2.05-2.7 3.45-2.85C-1.34 3.4-.31 1.54 0 0Zm.42-5.12c-1.44.73-2.5 2.14-3.24 4.26l-.06.23C-2.98 0-3.23.63-4.76.79c-3.34.35-5.6 2.35-6.06 5.34-.43 2.9 1.27 5.69 4.24 6.93.7.3 1.41.57 2.13.85 2.01.78 3.92 1.51 5.6 2.7 2.59 1.8 4.6 4.19 6.73 6.7L9 24.63l1.82 2.11c3.47 4.02 4.19 4.86 8.23 10.38a22.42 22.42 0 0 1 4.25 10.33c.26 1.82.74 5.22 4.14 6.72 1.75.77 3.67.8 5.27.07a5.76 5.76 0 0 0 3.12-3.6c.58-1.85 1.31-2.47 3.03-2.57 2.4-.15 4.17-1.76 5.01-4.54.7-2.35.05-4.56-1.83-6.23a6.74 6.74 0 0 0-2.63-1.57C33.07 34.06 28.74 29.68 25 25.19c-1.48-1.77-2.6-3.1-3.57-4.22-2.6-3.05-3.9-4.57-7.48-9.55a21.82 21.82 0 0 1-3.88-9.47 21.9 21.9 0 0 0-.6-2.71C8.54-3.92 6.38-5.69 3.4-5.74a6.27 6.27 0 0 0-2.98.62" style="fill:#9b50ff;fill-opacity:.1;fill-rule:nonzero;stroke:none" transform="matrix(1.3 0 0 -1.3 77.47 478.77)"/><path d="M0 0c-1.06 0-2.23-.2-3.52-.73-4.25-1.74-6.62-4.87-7.23-9.57-.77-5.98.48-11.82 1.66-16.23.15-.57.42-.75.67-.85 4.59-1.86 10.06-3.75 15.89-3.75h.18c3.38.02 5.86.85 7.8 2.61l.46.46c.33.32.64.63.9.94 2.54 3.15 3.17 6.02 1.98 9.03-1.37 3.44-3.84 5.42-7.33 5.9-2.35.33-2.82 1.53-2.8 3.24.03 2.77-1.7 5.87-4.18 7.55A7.95 7.95 0 0 1 0 0Zm7.47-33.52c-6.24 0-11.99 1.98-16.8 3.93-.73.3-1.68.96-2.08 2.44-1.24 4.63-2.55 10.76-1.72 17.16.72 5.55 3.64 9.4 8.7 11.47C-.84 2.95 2.8 2.63 5.83.58c3.16-2.13 5.27-5.97 5.23-9.55 0-.51.04-.67.06-.71.01.01.16-.07.67-.14 4.35-.6 7.54-3.15 9.23-7.4 1.53-3.83.76-7.56-2.34-11.4-.35-.42-.72-.79-1.08-1.14l-.45-.45-.05-.05c-2.38-2.17-5.46-3.23-9.44-3.26h-.2" style="fill:#9b50ff;fill-opacity:.1;fill-rule:nonzero;stroke:none" transform="matrix(1.3 0 0 -1.3 255.55 227.87)"/><path d="M0 0c-.71-.4-1.02-1.23-1.15-1.87-.33-1.57.2-3.02.83-4.34a7.1 7.1 0 0 1 3.49-3.3c.87-.36 1.67-.36 2.28 0 .6.34 1 1.05 1.1 1.99.35 2.91-1.6 6.32-4.27 7.45C1.67.2.79.41.05.03L0 0Zm6.4-11.24a4.5 4.5 0 0 0-3.98-.08c-1.84.75-3.27 2.1-4.48 4.2-.77 1.63-1.46 3.5-1.01 5.65a4.56 4.56 0 0 0 2.2 3.23c1.13.59 2.48.58 3.92-.03C6.5.27 8.95-3.98 8.5-7.75a4.45 4.45 0 0 0-2.06-3.46l-.06-.03" style="fill:#9b50ff;fill-opacity:.1;fill-rule:nonzero;stroke:none" transform="matrix(1.3 0 0 -1.3 263.86 56.27)"/><path d="M0 0a10.62 10.62 0 0 1-4.25-4.05A9.98 9.98 0 0 1-5.4-7.53c-.54-3.8-.31-7.52.68-11.04.32-1.15.74-2.2 1.14-3.2 1.04-2.64 2.03-5.13.97-8.42a3.2 3.2 0 0 1 .46-3c.7-.92 1.9-1.45 3.21-1.4 2.05.07 3.77.86 5.12 2.34.84.92 1.1 1.48 1.43 2.2.3.63.63 1.34 1.39 2.36 2.67 3.55 4.8 4.66 9.52 4.94 1.85.11 3.6.34 5.21.68 2.21.47 3.31 1.56 3.47 3.45.23 2.96-.04 4.72-2.17 5.54-3.68 1.42-6.57 3.63-9.36 7.16a22.4 22.4 0 0 1-4.24 4.1C8.98 0 7 .96 5.15 1.21c-.65.1-1.27.1-1.9 0A7.66 7.66 0 0 1 1.3.66 10.6 10.6 0 0 1 0 0Zm5.36-35.4a9.1 9.1 0 0 0-4.22-1.15 5.8 5.8 0 0 0-4.85 2.18 5.17 5.17 0 0 0-.76 4.78c.84 2.62.06 4.6-.93 7.1-.42 1.06-.85 2.15-1.2 3.39a28.67 28.67 0 0 0-.74 11.85c.22 1.52.68 2.91 1.37 4.15A12.59 12.59 0 0 0-.92 1.73c.48.28.98.53 1.46.73a8.86 8.86 0 0 0 4.89.69c2.17-.3 4.45-1.38 7.18-3.4a24.4 24.4 0 0 0 4.62-4.46c2.6-3.28 5.14-5.24 8.52-6.55 3.9-1.5 3.58-5.41 3.41-7.51-.15-1.93-1.14-4.4-5-5.22-1.71-.36-3.56-.6-5.5-.71-4.11-.25-5.77-1.1-8.08-4.17a9.69 9.69 0 0 1-1.18-2.01c-.35-.76-.71-1.54-1.76-2.69a9.18 9.18 0 0 0-2.28-1.84" style="fill:#9b50ff;fill-opacity:.1;fill-rule:nonzero;stroke:none" transform="matrix(1.3 0 0 -1.3 272.33 78.26)"/><path d="M0 0a1.17 1.17 0 0 1-.34-.28c-.34-.43-.38-1.2-.1-2.18.92-3.36 5.42-6.47 8.9-6.16.55.05 1.28.23 1.64.77.35.52.24 1.23.08 1.72-.1.35-.27.7-.46 1.09-.1.18-.19.37-.28.57C7.5-1.5 4.85.1 1.6.26A3.1 3.1 0 0 1 0 0Zm10.57-10a4.77 4.77 0 0 0-1.93-.57c-4.37-.4-9.81 3.37-10.98 7.6C-2.91-.94-2.4.28-1.87.93c.5.64 1.54 1.38 3.56 1.28 3.95-.2 7.13-2.1 9.45-5.69l.03-.06.03-.07.28-.59c.21-.43.43-.87.58-1.35.51-1.64.1-2.75-.33-3.4-.23-.35-.6-.75-1.16-1.06" style="fill:#9b50ff;fill-opacity:.1;fill-rule:nonzero;stroke:none" transform="matrix(1.3 0 0 -1.3 244.37 90.02)"/><path d="M0 0c-.45-.25-.85-.75-1.28-1.57a8.74 8.74 0 0 1 .12-8.95C-.55-11.6.22-12.2.99-12.18c.8 0 1.6.66 2.23 1.8 1.37 2.5 1.43 5.22.18 8.54C2.59-.59 1.9.15.87.2.55.2.27.15 0 0Zm2.78-13.65A3.65 3.65 0 0 0 1-14.14c-1.51-.01-2.89.93-3.87 2.65A10.72 10.72 0 0 0-3.02-.65c.43.8 1.56 2.92 3.99 2.8C3.07 2.05 4.2.54 5.1-.87l.05-.09.04-.09c1.48-3.89 1.4-7.25-.26-10.27a5.8 5.8 0 0 0-2.16-2.33" style="fill:#9b50ff;fill-opacity:.1;fill-rule:nonzero;stroke:none" transform="matrix(1.3 0 0 -1.3 283.3 54.15)"/><path d="M0 0a1.3 1.3 0 0 1-.32-.25c-.34-.37-.48-1-.4-1.89C-.46-4.66.99-6.44 4-7.9c1.65-.8 3.45-.59 3.97.14.8 1.11.74 2.31-.22 4.01-1.73 2.7-3.73 4-6.26 4.04A2.96 2.96 0 0 1 0 0Zm8.55-9.8c-1.4-.8-3.52-.79-5.4.14-2.3 1.11-5.41 3.1-5.82 7.34-.14 1.45.17 2.6.9 3.4.75.8 1.85 1.19 3.3 1.16 3.2-.05 5.79-1.68 7.9-5 .52-.9 2.01-3.54.14-6.15a3.15 3.15 0 0 0-1.02-.9" style="fill:#9b50ff;fill-opacity:.1;fill-rule:nonzero;stroke:none" transform="matrix(1.3 0 0 -1.3 247.53 70.03)"/><path d="M0 0zm14.94-16.93c.22 0 .45-.02.72-.04l.1-.01v.01c-.06.51-.03 1.04.09 1.53.4 1.7 1.65 2.67 3.31 2.56 1.76-.1 2.98-1.25 3.04-2.81l.04.02c.36.21.72.43.9.56-.07.23-.23.63-.38 1-.74 1.79-.15 3.55 1.43 4.28 1.6.74 3.12.34 4.03-1.02.21.4.43.8.5 1.01-.15.18-.56.5-.93.8-1.35 1.1-1.68 2.63-.87 4.1a3 3 0 0 0 3.78 1.48l.28-.1v.51a4.09 4.09 0 0 0 .03.79l-.06-.01a3.48 3.48 0 0 0-.75-.01C28.28-2.16 27-.95 26.9.82c-.1 1.64 1.05 2.92 2.93 3.27-.22.47-.46.85-.7 1.14l-.1-.06c-.26-.2-.6-.46-1.02-.58-2.36-.72-3.5.45-3.98 1.22a3.11 3.11 0 0 0 .58 4.13l.2.18-.27.16-.5.32-.3.19-.1-.17c-.2-.45-.74-1.65-2.07-2.02-1.8-.5-2.9.22-3.52.92a2.93 2.93 0 0 0-.48 3.38c-.47 0-.93 0-1.16-.04-.07-.24-.13-.74-.18-1.19-.2-1.73-1.36-2.78-3.1-2.82h-.1c-1.71 0-2.89 1.03-3.16 2.77l-.13-.07a43.7 43.7 0 0 0-.97-.56c.14-.22.28-.45.4-.68.88-1.75.42-3.54-1.15-4.46-1.43-.84-3-.48-4.23.93a6.68 6.68 0 0 1-.6-1.14c.22-.09.47-.2.7-.37C5.54 4.07 6.04 2.33 5.18.84 4.35-.61 2.73-1.1 1-.46c-.02-.48-.02-.94.03-1.36h.09c.28.04.6.08.93.04 2.55-.29 3.02-2 3.07-3A3.27 3.27 0 0 0 2.3-8.21l.2-.31.45-.73.11.07c.31.18.63.36 1 .51 1.47.62 2.93.22 3.89-1.07.93-1.26.82-2.73-.3-4.02a3.1 3.1 0 0 0-.47-.43c.4-.26.8-.5 1.18-.65l.08.19c.13.27.27.57.48.84 1.08 1.38 2.56 1.75 4.06 1a3.18 3.18 0 0 0 1.7-1.85c.24-.74.16-1.53-.23-2.29.15.02.32.03.49.03zm.82-.26zM14-19.17c-.58 0-1.3.13-1.72.75-.61.89-.04 1.98.2 2.45.14.24.17.45.11.63-.06.22-.28.42-.6.58-.46.23-.85.24-1.35-.4-.06-.07-.15-.26-.22-.42-.25-.54-.84-1.8-2.2-1.5-.97.22-1.8.77-2.53 1.25l-.62.4c-.6.36-.7.86-.72 1.12-.03.75.56 1.2.75 1.34l.44.3c.18.12.36.24.45.33.57.66.4 1 .19 1.3-.37.49-.73.59-1.3.36-.25-.11-.49-.25-.72-.4l-.46-.25a1.9 1.9 0 0 0-1.54-.2c-.3.1-.71.34-.97.9-.13.3-.33.6-.53.92-.39.6-.83 1.27-1 2.13l-.14.71.61.4a2.5 2.5 0 0 0 1.52.38l.25.01c.69.11 1.06.55 1.03 1.2-.03.47-.12.82-1.14.94l-.43-.03C.84-4.04-.6-4.21-.99-2.83A8.9 8.9 0 0 0-1.16.03l.03.78c0 .5.24.91.64 1.15.43.25.98.24 1.5-.03.19-.1.39-.2.6-.28.55-.25 1.29-.4 1.67.27.4.7-.34 1.35-.68 1.6-.07.05-.17.08-.27.12C.79 4.26.74 5.22.97 5.91a8.38 8.38 0 0 0 1.87 3.15c.5.52 1.03.51 1.3.47.74-.13 1.04-.79 1.2-1.14l.09-.17c.77-.92 1.26-.63 1.49-.5.71.42.56 1.1.3 1.61-.1.22-.24.43-.36.63l-.1.17c-.13.2-.5.8-.3 1.52.12.46.45.83.96 1.09.41.21.82.45 1.23.68l.77.45c.18.1.37.19.64.31l1.97.95v-1.74l-.01-.66c-.01-.32-.02-.55 0-.74.13-.82.47-1 1.07-.96.66.01.9.24.98.9.32 2.72.8 3.13 3.62 3.15h.11c.63 0 1.68.01 2.15-.84.49-.85-.1-1.8-.32-2.15-.27-.44-.25-.77.08-1.14.26-.3.57-.46 1.28-.26.25.07.44.3.67.83.35.76.84 1.24 1.46 1.42.96.27 1.82-.31 2.1-.5l.44-.28c.98-.58 1.62-.96 1.7-1.76.1-.8-.44-1.3-1.24-2.05-.48-.45-.55-.87-.22-1.4.14-.23.38-.62 1.49-.28.06.02.23.15.34.24.42.31 1.54 1.16 2.62.19a7.33 7.33 0 0 0 1.87-3.03c.24-.69.2-1.25-.16-1.68-.52-.64-1.32-.52-1.7-.46l-.17.02c-.46-.09-1.13-.34-1.1-1.01.03-.42.18-.98 1.19-1.05.16 0 .3-.02.35 0 .86.12 1.53-.05 2-.52.48-.46.66-1.15.54-2.02-.02-.1-.01-.22 0-.33v-.26c0-1.15 0-1.91-.67-2.4-.67-.48-1.39-.25-2.48.1-.58.2-.9.06-1.18-.46-.22-.38-.33-.82.33-1.35 2.09-1.68 2.2-2.23.97-4.55l-.1-.18c-.28-.52-.79-1.48-1.78-1.49h-.02c-.98 0-1.51.95-1.77 1.4-.23.4-.55.74-1.36.36-.73-.33-.44-1.21-.33-1.48.97-2.35.77-2.94-1.42-4.25l-.1-.06c-.74-.44-1.6-.95-2.43-.45-.88.5-.83 1.7-.82 2.2.02.61-.52.77-.98.8-.5.02-.87-.12-1.06-.89a2.42 2.42 0 0 1-.04-.8c.08-.78-.1-1.4-.53-1.85-.45-.45-1.12-.63-1.96-.55a4 4 0 0 1-.8.01c-.16-.01-.38-.04-.63-.04zm5.23 36.38zm-9.22-.77c-.35 0-.67-.11-1.07-.36l-.4-.24a30.84 30.84 0 0 0-3.4-1.9c-1.62-.74-2.88-2.2-4-3.48A19.31 19.31 0 0 1-3.1 1.6c-.63-3.25-.35-6.77.8-10.18a18.72 18.72 0 0 1 5.63-8.14 20.23 20.23 0 0 1 9.44-4.43c3.06-.56 6.38-.27 9.86.87 3.02.98 5.88 2.95 8.27 5.7 2.2 2.54 3.42 5.82 4.4 9a17.25 17.25 0 0 0 .01 3.06c.1 1.7.2 3.3-.63 4.72-.25.44-.2.88-.17 1.14l.05.4c.08.3.06.61-.31 1.23-.2.33-.4.66-.62.98-.54.86-1.1 1.73-1.49 2.73-.5 1.31-1.55 2.25-2.66 3.24l-.81.73c-2.54 2.41-6.12 3.54-9.3 4.52-.9-.07-1.81-.03-2.7 0-1.72.08-3.36.16-4.81-.7-.53-.3-1.08-.16-1.4-.08-.15.04-.3.05-.43.05zm5.85-40.04c-1.2 0-2.37.1-3.5.31-3.9.71-7.52 2.41-10.47 4.92a20.92 20.92 0 0 0-6.29 9.1 22.3 22.3 0 0 0-.87 11.29 21.5 21.5 0 0 0 4.74 9.83c1.28 1.48 2.7 3.13 4.76 4.06 1.08.5 2.14 1.15 3.17 1.78l.4.25c.65.4 1.69.9 3.03.6l.15-.04H11c1.93 1.02 3.97.93 5.77.85.88-.04 1.72-.07 2.53 0 .2.03.4 0 .6-.06 3.42-1.06 7.32-2.27 10.26-5.06l.77-.7c1.2-1.06 2.55-2.27 3.24-4.07.3-.79.79-1.54 1.3-2.33l.65-1.05c.38-.63.84-1.6.57-2.78l-.02-.2c1.05-1.93.93-3.96.81-5.75-.06-.96-.11-1.87 0-2.74.02-.26 0-.5-.07-.74-1.05-3.43-2.38-7-4.87-9.87a21.09 21.09 0 0 0-9.24-6.35 23.95 23.95 0 0 0-7.43-1.25" style="fill:#9b50ff;fill-opacity:.1;fill-rule:nonzero;stroke:none" transform="matrix(1.3 0 0 -1.3 510.8 558.4)"/><path d="M0 0a5.1 5.1 0 0 1 5.18-5.21 5.3 5.3 0 0 1 5.25 5.17c0 1.37-.54 2.68-1.55 3.69a5.13 5.13 0 0 1-3.63 1.53h-.02A5.18 5.18 0 0 1 0 0Zm5.22-7.4h-.07A7.32 7.32 0 0 0-2.19 0a7.34 7.34 0 0 0 7.41 7.36h.03a7.3 7.3 0 0 0 5.18-2.18 7.3 7.3 0 0 0-.04-10.44 7.34 7.34 0 0 0-5.17-2.13" style="fill:#9b50ff;fill-opacity:.1;fill-rule:nonzero;stroke:none" transform="matrix(1.3 0 0 -1.3 525.26 561.09)"/><path d="M0 0c1 1.5 2.64 2.83 3.24 4.5-.43.98-1.93 1.71-2.8 2.46-7.32 4.4-13.13-5.77-6.05-10.31.57-.39 1.16-1.05 1.7-1.12.47-.03.86.61 1.26 1.1l2.51 3.2zm1.6-1.53C-.03-3.58-1.67-5.63-3.28-7.7c-.77-.92-1.26-2.25-.26-3.19 3.04-2.65 6.33-5.03 9.52-7.5a3.8 3.8 0 0 1 1.94-.81c1.52-.06 2.1 1.08.83 1.89-2.9 2.03-5.73 4.17-8.48 6.4-.7.56-1.34 1.35-.96 2.26.54 1.18 1.5 2.19 2.33 3.18.66.77 1.51.98 2.34.52 1.3-.7 2.35-1.96 3.7-2.51.78-.3 1.59-.08 1.57.72-.02.86-1.07 1.69-1.91 2.34C4.5-2.37 4.48-1.55 6.8 1.13c.59.67 1.18 1.63 2.13 1.71.42.02.84-.2 1.29-.48 2.93-2.14 5.6-4.4 8.67-6.42.42-.25 1.27-.73 1.52-.07.26.98-.79 2.14-1.57 2.75C15.77.99 12.82 3.5 9.64 5.75c-1.1.76-2.25.11-2.96-.85C5.01 2.83 3.38.73 1.75-1.33Zm42.77-14.79c-11.98.6-22.84 7.11-32.25 14.3-.93.6-1.96 1.9-3.1 1.62-1.34-.66-.48-2.07.6-2.71a5.44 5.44 0 0 0 1.97-2.46c.86-2.49-1.68-5.3-4.25-4.54-1.59.13-4.33 3.95-5.01.99-.01-.44.23-.87.64-1.23 7.75-6.11 16.18-11.51 25.7-14.2 3.19-.7 7.43-1.94 10.04.62 1.89 2.15 3.68 4.53 5.5 6.89.16.26.25.47.2.62zm3.76 4.34C50.73-6.96 46.36-1 43.62 3.18A84.86 84.86 0 0 1 9.28 29.95c-4.6 1.6-13.88 5.1-16.36-.97-.49-1.99-.27-6.75 2.4-6.85C7.98 21.97 19.3 14.28 28.2 5.84 33.26.67 37.89-5.35 39.5-12.5c.68-2.84 7.22-1.55 8.46.34zM-12.71 6.55c.4-.5 1.3-2.8 2.02-1.57a8.77 8.77 0 0 0 9.06 5.25c.34 0 .53.06.51.25-3.57 4.68-7 9.77-8.56 15.54-.12.09-.26.06-.43-.07-.99-1.08-2-2.56-2.98-3.74-1.1-1.6-2.8-2.96-3.33-4.9-.51-3.83 1.7-7.44 3.59-10.56zm18.97 11.2c-3 1.27-6.29 2.22-9.62 2.39-.36 0-.98-.01-1.18-.27-.3-.38.13-1.06.4-1.49A56.26 56.26 0 0 1 4.21 8.03c1.16-1.03 2 .23 3.18.51.67.19 1.37.21 2.03.01a6.8 6.8 0 0 0 1.99-1.1c3.38-2.78 7.33-5.34 10.46-8.48.46-.58.77-1.17.93-1.8.39-1.16-.34-2.78.26-3.75 1.75-1.78 4.41-2.64 6.6-3.84 2.35-1 4.87-2.45 7.4-2.6.63.18.23 1.33.03 1.87C31.84 2.02 19.33 12.3 6.47 17.67Zm-7.62-34c-.43 1.3-2.25 2.05-3.22 3.03-1.34 1.04-2.27 2.6-1.93 4.28.1.68.62 1.31.66 1.98.03 1.09-1.22 1.67-1.96 2.35a10.26 10.26 0 0 0-3.08 4.17c-3.16 5.73-8.06 10.5-7.86 17.32.1 1.78 1.06 3.23 2.17 4.56 2.76 3.45 5.5 7.02 8.29 10.4a8.3 8.3 0 0 0 3.8 2.39c13.95 2.33 31.82-11.19 41.57-20.2l.17-.17c5.83-5.94 18.4-19.17 12.35-27.9-2.78-3.6-5.74-7.28-8.6-10.91a8.2 8.2 0 0 0-2.56-2.17c-8.27-2.92-18.3 3.29-25.53 7.06-.78.32-1.5-.03-2.12-.51-3.26-2.4-6.11.09-8.76 2.05l-3.39 2.26" style="fill:#9b50ff;fill-opacity:.1;fill-rule:nonzero;stroke:none" transform="matrix(1.3 0 0 -1.3 109.65 577.52)"/><path d="M0 0a1.81 1.81 0 0 0-.36 2.5c.57.78 1.81.95 2.58.33.73-.58.87-1.79.3-2.52C1.9-.45.76-.59 0 0" style="fill:#9b50ff;fill-opacity:.1;fill-rule:nonzero;stroke:none" transform="matrix(1.3 0 0 -1.3 146.36 604.08)"/><path d="M0 0c.8-.6.97-1.71.4-2.48a1.9 1.9 0 0 0-2.6-.35 1.8 1.8 0 0 0-.28 2.5C-1.87.47-.8.61 0 0" style="fill:#9b50ff;fill-opacity:.1;fill-rule:nonzero;stroke:none" transform="matrix(1.3 0 0 -1.3 140.45 596.06)"/><path d="M0 0c.63.8 1.69.95 2.48.34.83-.62.95-1.71.3-2.53A1.81 1.81 0 0 0 .26-2.5 1.8 1.8 0 0 0 0 0" style="fill:#9b50ff;fill-opacity:.1;fill-rule:nonzero;stroke:none" transform="matrix(1.3 0 0 -1.3 128.67 591.86)"/><path d="M0 0c-8.9-8.5-8.13-23.08.04-30.32C9.64-23.72 10.11-7.29 0 0Zm30.91-30.36c9.16 8.83 7.68 23.62-.11 30.28-10.13-7.32-9.6-23.57.11-30.28zm-2.4 32.4c-6.89 6.04-19.34 6-26.22-.06a21.56 21.56 0 0 0 7.99-17.15c.02-6.96-2.72-12.73-8.01-17.28 8.33-6.67 20.34-5.39 26.18.05-10.64 8.97-10.48 25.75.05 34.44zM-9.35-15.11A24.77 24.77 0 0 0 15.6 9.44C29.3 9.27 40.31-1.8 40.22-15.3c-.09-13.76-11.3-24.64-25.28-24.52C1.59-39.7-9.43-28.49-9.34-15.1" style="fill:#9b50ff;fill-opacity:.1;fill-rule:nonzero;stroke:none" transform="matrix(1.3 0 0 -1.3 30.91 605.67)"/><path d="m0 0-.46-.28a17.3 17.3 0 0 1 3.13-8.35c.59.61 1.1 1.04 1.47 1.57.23.32.47.95.32 1.17C3.02-3.9 1.5-1.96 0 0Zm21.9-16.52c4.15.2 10.8 4.46 12.33 8.61-4.86-1.8-9.02-4.34-12.32-8.61zM1.27 8.68l-.6-.2c-.25-.86-.5-1.72-.78-2.57-.45-1.3-.24-2.34.8-3.4 1.61-1.68 3-3.57 4.49-5.38L6.5-4.54l3.04 2.92-8.29 10.3Zm16.37 5.26 9.6 4.27c-3.2 2.52-11.38 3.25-14.53 1.25l4.93-5.52zm-13.42.47c-.86-1.21-1.47-1.96-1.93-2.78-.16-.29-.1-.91.12-1.17C5.35 7 8.35 3.56 11.44.02l2.9 2.44L4.22 14.41Zm14.96-2.6 2.53-3.96 12.23 4.7c-.93 1.03-1.92 2.18-2.99 3.25-.27.27-.85.45-1.22.37a29.8 29.8 0 0 1-10.55-4.36zM36.7-1.7c-9.68-1.71-16.2-7.91-22.62-14.98 1.46-.15 2.56-.35 3.65-.33.5.01 1.2.35 1.47.75 3.66 5.37 8.8 8.65 14.85 10.7 2.25.76 2.49 1.1 2.65 3.86zM16.22 3.8l3.6 2.56c-2.5 4.51-5.68 8.26-9.14 11.8-.22.23-.82.41-1.04.28-1.33-.76-2.6-1.63-3.8-2.39L16.23 3.8ZM36.4 6.9c-.7 3.25-.77 3.3-3.75 2.6-.94-.21-1.87-.5-2.78-.82C22.08 5.88 15.73.92 9.8-4.66 7.8-6.53 5.96-8.53 3.95-10.57l2.38-2.22C14.64-3.42 23.35 4.97 36.4 6.9ZM8.34-13.97c2.62-2.24 2.98-2.13 5.15.04 2.88 2.86 5.77 5.76 8.94 8.29C26.7-2.25 31.56.08 37.28.57l-.23 4.1C24.38 2.79 16.19-5.3 8.34-13.98ZM39.79-2.66c.98 1.92 2.07 3.8 2.92 5.77 1.7 3.95 5.1 5.87 8.78 4.74 1.8-.56 3.38-1.54 4.17-3.33.24-.55.17-1.63-.2-1.95-.77-.65-1.3.04-1.75.78-2.08 3.44-6.28 3.38-8.29-.11-1.31-2.29-2.55-4.62-3.85-6.9-.25-.44-.61-.88-1.03-1.12-2.36-1.34-3.54-3.65-5.03-5.75-5.47-7.75-15.3-10.74-24.5-7.55C2.5-15.15-3.3-6.45-2.88 2.7c.74 15.85 18.2 25.31 31.98 17.32 7.3-4.24 11.37-12.71 10.23-21.32l-.13-1.18.57-.19" style="fill:#9b50ff;fill-opacity:.1;fill-rule:nonzero;stroke:none" transform="matrix(1.3 0 0 -1.3 116.42 492.91)"/><path d="M0 0c-.19 0-.38-.02-.57-.05-1.1-.16-1.88-.69-2.11-2.72-.46-4.01-.98-8.56-1.6-13-.6-4.2.62-7.7 3.7-10.71a5 5 0 0 0 1.37-4C.13-34.3-.77-38.18-1.63-41.8c-.32-1.36-.7-2.71-1.08-4.03-.62-2.18-1.2-4.25-1.55-6.38-.88-5.42.24-10.2 3.14-13.45 2.75-3.09 6.97-4.68 11.84-4.47 2.6.11 5.23.08 7.78.05 2.77-.03 5.64-.07 8.44.08 2.48.14 4.84.8 6.47 1.82 5.17 3.24 7.64 8.03 7.14 13.53-2.56 2.22-6.73 5.94-10.43 9.24l-6.2 5.5c-2.48 2.19-5.37 5.27-5.8 9.78a5.43 5.43 0 0 0 1.24 3.91c2.66 2.85 3.77 5.87 3.42 9.22-.4 3.74-.87 7.54-1.33 11.22l-.42 3.49C20.8-.51 19.87-.16 18.98-.05c-1.37.18-2.18-.34-2.73-1.73-.34-.86-.7-1.71-1.04-2.48L14.47-6H3.96l-.74 1.77c-.32.76-.65 1.52-.95 2.3C1.65-.37.84 0 0 0Zm9.88-72.81c-5.3 0-9.89 1.89-13 5.38-3.45 3.86-4.8 9.42-3.78 15.65.37 2.28 1 4.52 1.61 6.68.36 1.28.74 2.61 1.05 3.91.85 3.59 1.74 7.4 2.39 11.17.07.38-.22 1.26-.6 1.63-3.74 3.65-5.2 7.9-4.5 12.99a520 520 0 0 1 1.6 12.93C-5 .51-3.53 2.21-.97 2.6 1.67 3 3.7 1.72 4.76-.96c.3-.75.6-1.5.92-2.23l.06-.14h6.96l.05.12c.32.75.67 1.57 1 2.4 1 2.53 2.99 3.74 5.57 3.41 2.5-.32 4.05-1.94 4.37-4.57l.42-3.48c.46-3.7.93-7.5 1.33-11.27.44-4.16-.9-7.86-4.12-11.31a2.86 2.86 0 0 1-.52-1.86c.26-2.82 1.72-5.22 4.9-8.02 1.57-1.38 3.8-3.38 6.2-5.51l7.64-6.8c-.03.1-.06.2-.1.28-.46 1.25-1.03 2.51-1.6 3.73-.68 1.5-1.39 3.06-1.93 4.67a113.73 113.73 0 0 0-3.38 12c-.64 2.92.72 5.51 3.53 6.76 4.08 1.81 6.78.49 8.31-.94.75-.7 1.3-1.5 1.83-2.29.4-.58.77-1.13 1.2-1.6.5-.53.47-1.38-.08-1.88a1.34 1.34 0 0 0-1.9.08c-.55.6-1 1.27-1.44 1.9-.47.7-.9 1.35-1.43 1.84-.9.83-2.42 1.78-5.4.45-1.66-.73-2.37-2.07-2-3.75.79-3.63 1.87-7.46 3.3-11.72.5-1.49 1.15-2.9 1.84-4.41.58-1.27 1.17-2.57 1.67-3.91 3.2-8.62.53-16.63-7.13-21.43-2.73-1.72-6.03-2.13-7.74-2.22-2.89-.16-5.8-.12-8.63-.09a140.77 140.77 0 0 1-8.58-.06" style="fill:#9b50ff;fill-opacity:.1;fill-rule:nonzero;stroke:none" transform="matrix(1.3 0 0 -1.3 302.4 339.94)"/><path d="m0 0 5.8 2.85-2.95 5.62L-3 5.26 0 0Zm6.89 14.5-.21.7c-7.77 2.86-15.73 4.47-23.91 2.14-3.06-.88-5.85-2.77-8.66-4.37-1.65-.95-1.97-2.62-1.13-4.28 1.11-2.16 2.12-4.47 3.66-6.3C-12.83-10.15 6.78-13.05 20.5-4.14c1.82 1.18 2.85.97 3.91-.86 1.56-2.65 3.29-5.2 5.16-8.15l4.56 16.91L25.9-.53C23.16-1.96 22.91-1.87 21.55.9a29.11 29.11 0 0 1-11.8 12.71L5.63 10.3 8.7 4.53c1.03.55 1.84 1.15 2.74 1.4.6.17 1.32-.15 1.99-.26-.18-.7-.14-1.6-.57-2.07-.68-.73-1.68-1.15-2.63-1.76.55-1.05 1.17-1.92 1.43-2.89.15-.56-.3-1.27-.49-1.92-.64.2-1.47.2-1.88.62-.7.73-1.15 1.7-1.65 2.5L1.28-3.23c.75-.95 1.54-1.64 1.88-2.5.22-.56-.2-1.39-.34-2.1-.7.23-1.57.27-2.04.73-.7.7-1.11 1.67-1.9 2.94-.93-.7-1.63-1.46-2.5-1.77-.6-.21-1.42.22-2.14.37.22.69.22 1.67.7 2 .8.59 1.9.77 2.54 1l-3.5 6.75c-.91-.64-1.64-1.38-2.52-1.68-.6-.2-1.4.24-2.12.39.26.68.34 1.53.81 2.01.69.7 1.65 1.12 2.96 1.97-.68.83-1.42 1.4-1.66 2.13-.23.7.07 1.57.13 2.36.78-.33 1.7-.52 2.3-1.05.63-.55.95-1.44 1.31-2.04l5.92 3.16L.05 13.4c-.54.98-1.34 2.1.11 2.84 1.4.72 1.93-.55 2.5-1.5l1-1.64 3.23 1.4zM21.9-6.17C17.59-7.52 13.41-10.21 9.3-11-3.1-13.37-19.88-6.56-26.67 3.3c-4.78 6.94-3.72 10.8 3.98 14.31 7.14 3.26 14.67 3.15 22.35 1.61 10.6-2.13 19.63-8.55 23.72-17.98 3.33 1.61 6.54 3.24 9.84 4.7.89.4 2.33 1.33 3.37 1.45.06-.94.37-1.95.15-2.82a937.46 937.46 0 0 0-5.4-20.05c-.22-.79-1.04-1.4-1.59-2.1-.74.55-1.4 2.02-1.9 2.72-2.12 2.94-4.1 5.96-5.95 8.69" style="fill:#9b50ff;fill-opacity:.1;fill-rule:nonzero;stroke:none" transform="matrix(1.3 0 0 -1.3 296.88 546.28)"/><path d="M0 0a21.56 21.56 0 0 0 8.35 5.2c1.56.51 3.21.85 4.86 1 1.27.12 3.6.42 4.6-.6.83-.86.24-2.67.17-3.7a6.8 6.8 0 0 1 1.36-4.87c2.49-3.18 6.89-3.3 10.57-3.08 4.57.26 8.99 1.16 13.3 2.64.95.33 1.23 1.65.84 2.46-.47.99-1.53 1.15-2.47.83a43.1 43.1 0 0 0-11.9-2.3c-2.77-.12-8.23-.28-8.05 3.78.08 1.56.46 3.1.03 4.64A5.2 5.2 0 0 1 18 9.54c-3.26.97-7.23.27-10.4-.75A25.19 25.19 0 0 1-2.42 2.77C-4.09 1.11-1.68-1.67 0 0" style="fill:#9b50ff;fill-opacity:.1;fill-rule:nonzero;stroke:none" transform="matrix(1.3 0 0 -1.3 7.95 424.67)"/><path d="M0 0a7.44 7.44 0 0 1-7.44-7.41 7.44 7.44 0 0 1 14.88 0A7.44 7.44 0 0 1 0 0Zm0-17.32a9.94 9.94 0 0 0-9.95 9.9 9.94 9.94 0 0 0 19.9 0c0-5.46-4.46-9.9-9.95-9.9" style="fill:#9b50ff;fill-opacity:.1;fill-rule:nonzero;stroke:none" transform="matrix(1.3 0 0 -1.3 310.88 645.48)"/><path d="m0 0 6.44-6.25a.98.98 0 0 0 .28-.87L5.2-15.95l7.97 4.17c.28.15.62.15.91 0l7.96-4.17-1.52 8.83c-.05.32.05.64.28.87L27.25 0l-8.9 1.29a.98.98 0 0 0-.75.53l-3.98 8.04-3.98-8.04a.98.98 0 0 0-.74-.53Zm23.35-18.72a.99.99 0 0 0-.46.12l-9.27 4.85-9.26-4.86a.99.99 0 0 0-1.43 1.04L4.7-7.3-2.8-.02a.98.98 0 0 0 .55 1.67L8.1 3.15l4.63 9.35c.33.67 1.43.67 1.76 0l4.64-9.35 10.36-1.5a.98.98 0 0 0 .55-1.67l-7.5-7.28 1.77-10.27a.98.98 0 0 0-.97-1.15" style="fill:#9b50ff;fill-opacity:.1;fill-rule:nonzero;stroke:none" transform="matrix(1.3 0 0 -1.3 167.32 170.96)"/><path d="m0 0 22.52-18.16c.54 4.14 1.55 11.83 1.74 13.54-.1 1.5-5.7 9.69-11.06 16.71l-.27.37 2.51 13.63-15 5.96 6.88 16.21-16.41 14.8-8.66-17.32 12.02-12.76-4.78-15.1 16.86-5.79Zm24.4-23.29L-3.2-1.02 2.8 10.44l-16.44 5.64 5.02 15.86-12.21 12.95 11.2 22.43L10.37 49.3 3.73 33.68l14.58-5.8-2.65-14.37c4.43-5.8 11.46-15.49 11.18-17.9-.27-2.37-2.02-15.68-2.1-16.24l-.34-2.66" style="fill:#9b50ff;fill-opacity:.1;fill-rule:nonzero;stroke:none" transform="matrix(1.3 0 0 -1.3 109.2 169.71)"/><path d="M0 0a1.6 1.6 0 0 1-1.5-1.02l-11.7-31.04c-.3-.81.12-1.72.93-2.03L18.9-45.74a1.59 1.59 0 0 1 2.04.92l11.7 31.03c.16.4.14.82-.04 1.2-.17.4-.49.69-.88.84L.55-.1C.37-.03.2 0 0 0Zm19.45-48.13c-.46 0-.92.08-1.36.25l-31.16 11.65a3.86 3.86 0 0 0-2.27 4.98L-3.64-.22a3.86 3.86 0 0 0 5 2.26L32.5-9.62a3.85 3.85 0 0 0 2.27-4.97l-11.7-31.03a3.85 3.85 0 0 0-3.63-2.5" style="fill:#9b50ff;fill-opacity:.1;fill-rule:nonzero;stroke:none" transform="matrix(1.3 0 0 -1.3 307.84 152.94)"/><path d="M0 0c-.14 0-.27.02-.4.07l-35.23 13.18a1.14 1.14 0 1 0 .8 2.13L.4 2.21A1.14 1.14 0 0 0 0 0" style="fill:#9b50ff;fill-opacity:.1;fill-rule:nonzero;stroke:none" transform="matrix(1.3 0 0 -1.3 347.28 186.12)"/><path d="M0 0c-.13 0-.27.02-.4.07l-35.23 13.18a1.14 1.14 0 1 0 .8 2.13L.4 2.21A1.14 1.14 0 0 0 0 0" style="fill:#9b50ff;fill-opacity:.1;fill-rule:nonzero;stroke:none" transform="matrix(1.3 0 0 -1.3 341.29 202)"/><path d="M0 0c-.13 0-.27.02-.4.07l-10.54 3.94a1.14 1.14 0 1 0 .8 2.14L.4 2.2A1.14 1.14 0 0 0 0 0" style="fill:#9b50ff;fill-opacity:.1;fill-rule:nonzero;stroke:none" transform="matrix(1.3 0 0 -1.3 332.88 172.58)"/><path d="M0 0c-.13 0-.27.02-.4.07l-10.54 3.94a1.14 1.14 0 1 0 .8 2.14L.4 2.2A1.14 1.14 0 0 0 0 0" style="fill:#9b50ff;fill-opacity:.1;fill-rule:nonzero;stroke:none" transform="matrix(1.3 0 0 -1.3 327.07 187.98)"/><path d="M0 0c-.14 0-.27.02-.4.07l-10.54 3.94a1.14 1.14 0 1 0 .8 2.14L.4 2.2A1.14 1.14 0 0 0 0 0" style="fill:#9b50ff;fill-opacity:.1;fill-rule:nonzero;stroke:none" transform="matrix(1.3 0 0 -1.3 321.27 203.37)"/><path d="m0 0-3.8.59-.98-5.29L0 0Zm-14.54 14.5-4.85-4.82 5.46 1-.61 3.82zm2.28-1.03c.49-3.06.99-6.23 1.52-9.4.02-.13.25-.3.41-.33.7-.14 1.4-.23 2.1-.34L-1 2.26l-11.26 11.2zm5.14-19.28L-5.87.92c-1.98.31-3.83.62-5.68.89-.7.1-1.07.44-1.16 1.13-.1.86-.26 1.72-.4 2.57l-.51 3.11-6.75-1.24L-7.12-5.81zm-6.72 23.77c.32-.2.63-.33.84-.54C-7.67 12.13-2.35 6.84 2.96 1.54c.59-.59.6-1.1.04-1.67C.12-3.02-2.76-5.9-5.65-8.76c-.56-.56-1.12-.54-1.69.03L-23.29 7.15c-.6.6-.59 1.13.01 1.73 2.85 2.84 5.7 5.68 8.57 8.51.23.23.55.36.87.57" style="fill:#9b50ff;fill-opacity:.1;fill-rule:nonzero;stroke:none" transform="matrix(1.3 0 0 -1.3 407.02 35.27)"/><path d="m0 0 27.28 8.08L6.46 27.76Zm30.68 5.92L-1.64-3.66a1.53 1.53 0 0 0-1.92 1.8l7.65 32.9c.12.52.52.95 1.04 1.1.53.16 1.1.02 1.5-.35L31.3 8.47a1.52 1.52 0 0 0-.62-2.55" style="fill:#9b50ff;fill-opacity:.1;fill-rule:nonzero;stroke:none" transform="matrix(1.3 0 0 -1.3 21.49 83.4)"/><path d="M0 0c-.27 0-.54-.02-.8-.06L-33.28-5.1a5.18 5.18 0 0 1-4.35-5.94l11.95-76.34a5.22 5.22 0 0 1 5.95-4.33l32.47 5.04a5.19 5.19 0 0 1 4.35 5.94L5.15-4.4A5.22 5.22 0 0 1 0 0Zm-20.52-94a7.46 7.46 0 0 0-7.36 6.28l-11.95 76.34a7.43 7.43 0 0 0 6.21 8.48l32.47 5.04a7.46 7.46 0 0 0 8.51-6.2l11.95-76.33a7.41 7.41 0 0 0-6.22-8.48l-32.46-5.04a7.53 7.53 0 0 0-1.15-.09" style="fill:#9b50ff;fill-opacity:.1;fill-rule:nonzero;stroke:none" transform="matrix(1.3 0 0 -1.3 205.5 12.77)"/><path d="m0 0 .48-3.05L15.83-.66l-.47 3.04zm-1.39-5.6-1.16 7.46 19.77 3.07 1.17-7.45L-1.4-5.6" style="fill:#9b50ff;fill-opacity:.1;fill-rule:nonzero;stroke:none" transform="matrix(1.3 0 0 -1.3 172.55 17.8)"/><path d="M0 0a42.52 42.52 0 0 0-2.38-26.44c-3.28-7.43-7.9-10.65-12.8-14.05-4.83-3.36-10.3-7.16-15.67-15.83-8.33-13.45-.35-27.49 3.25-32.65.48 4.56 2.32 13.9 9.4 20.52 2.53 2.37 6.18 4.45 10.42 6.87 11.4 6.52 25.62 14.63 25.45 33.4C17.5-10.4 4.86-2.41 0 0Zm-25.8-94.3-1.73 1.98c-.17.2-16.17 18.98-5 37.03 5.59 9 11.24 12.94 16.22 16.4 4.87 3.39 9.07 6.3 12.13 13.24C1.93-11.79-2.38 1.3-2.43 1.43l-.66 1.95 1.93-.72c.21-.08 20.58-7.93 20.8-30.82.17-19.92-15.21-28.7-26.45-35.12-4.12-2.35-7.68-4.39-10.05-6.6-8.85-8.28-8.95-21.66-8.95-21.8v-2.62" style="fill:#9b50ff;fill-opacity:.1;fill-rule:nonzero;stroke:none" transform="matrix(1.3 0 0 -1.3 232.09 458.08)"/><path d="m0 0-6.58 11.3 1.7.98L-.12 4.1l4.43 8.71 9.54-8.09-1.27-1.49-7.65 6.48L0 0" style="fill:#9b50ff;fill-opacity:.1;fill-rule:nonzero;stroke:none" transform="matrix(1.3 0 0 -1.3 238.74 497.86)"/><path d="m0 0 7.5-11.38 9.75 3.55 4.17 15.8-11.1 5.9zm6.4-14.71L-3.38.09l12.9 17.33 15.12-8.05-5.1-19.3L6.4-14.7" style="fill:#9b50ff;fill-opacity:.1;fill-rule:nonzero;stroke:none" transform="matrix(1.3 0 0 -1.3 71.86 213.71)"/><path d="m0 0-3.16 17.07-17.7-3.43-4.33 17.41-18.04-3.92-3.5 16.56 2.72.57 2.92-13.83 17.95 3.9 4.34-17.47 17.87 3.46L2.73.5 0 0" style="fill:#9b50ff;fill-opacity:.1;fill-rule:nonzero;stroke:none" transform="matrix(1.3 0 0 -1.3 274.56 347.58)"/><path d="M0 0c-3.08-5.62-1.54-10.12 1.3-14.45.43-.64.87-1.6 1.85-1.28.88.3.92 1.3 1.01 2.08C4.75-8.7 2.8-4.54 0 0Zm-35.16 38.58c-.26-8.36 5.1-11.42 10.62-14.34-.87 6.56-5.25 10.42-10.62 14.34zm28.48-24.52c-.07 1-.08 2.17-.26 3.32-.18 1.12-.6 1.73-1.82.75-2.9-2.33-5.43-10.42-4.2-13.93.66-1.87 1.63-2.18 2.9-.48 2.25 3 3.17 6.45 3.38 10.34zm-4.9 22.9c-.38.84.67 2.45-.61 2.97-1.22.49-1.85-1.12-2.68-1.85-3.77-3.33-4.75-7.97-5.58-12.66-.07-.41-.04-1.08.22-1.28.66-.52 1.34-.1 1.86.39 3.56 3.31 6.9 6.77 6.8 12.42zm-5.74-33.9c-.12.24-.27.69-.52 1.08-3.27 5.09-8.35 7.76-13.58 10.09-1.94.86-1.23-1.1-1.05-1.9 1-4.42 9.39-10.78 13.8-10.58.77.04 1.43.07 1.35 1.31zm-5.43 61.84c-3.32-6.42-4.1-12.06-.85-17.85.38-.68.59-1.74 1.52-1.75 1.15-.01 1.32 1.18 1.63 2 2.27 6 .55 11.48-2.3 17.6zm15.4-85.12c1.1.09 1.94.01 2.7.24 1.18.36 2.96.25 3.23 1.62.31 1.55-1.47 1.9-2.53 2.45-3.78 1.97-7.95 2.45-12.08 2.95-1.1.13-2.64 1.44-3.33-.33-.55-1.44.59-2.65 1.58-3.67 2.98-3.07 7.02-2.56 10.43-3.26zm-13.17 31.63c-.66 2.5-1.33 5.01-1.97 7.52-.35 1.4-1.32 2.15-2.56 2.69-2.16.94-3.96 2.45-5.91 3.73-5.52 3.62-6.5 9.16-6.72 15.12-.03.7-.23 1.52.43 1.97.9.61 1.55-.15 2.12-.68a756.1 756.1 0 0 0 8.46-7.87c.74-.7 1.06-1.86 2.9-2.1-.26 4.66 1.48 9.23-1.49 13.67-2.68 4.01-2.66 8.55-2.31 13.3.26 3.6 2.72 5.92 3.7 9.01.5 1.56 1.55 1.88 2.33.16 3.66-8.1 6.67-16.25 1.38-24.9-1.75-2.87-1.44-6.13-1.41-10.2 2.66 4.4 5.8 7.4 8.88 10.45.64.64 1.22 1.58 2.34 1.1.96-.43.67-1.4.79-2.19 1.34-8.9-1.5-15.84-9.42-20.25-1.38-.77-1.5-1.65-1.2-2.87.95-3.64 1.87-7.3 4.26-11.34.87 5.59 3.63 9.43 6.77 13.03.68.77 1.25 1.95 2.48 1.63 1.24-.32 1.19-1.62 1.4-2.63 1.5-7.26.59-13.9-4.91-19.3-.98-.96-1.4-1.85-.52-3.07 2.2-3 4.06-6.3 7.3-8.73-1.66 4.82.12 9.24 1.06 13.74.18.89.22 2.08 1.37 2.22C.13 4.76.55 3.72 1 2.9 3.54-1.76 6.5-6.24 6.4-11.88c-.01-.59-.08-1.18-.06-1.77.04-1.98-2.15-3.92-.83-5.69 1.46-1.96 4.01-2.73 6.17-3.9 1.2-.66 3.86-.98 3.17-2.41-.94-1.92-3-.02-4.19.66-5.1 2.92-9.81 5.82-16.22 2.95-3.02-1.35-6.9-.17-10.24 1.13-3.64 1.4-6.82 5.7-7 9.45-.1 2.1 1.13 1.89 2.55 1.61 4.22-.8 8.46-1.55 12.7-2.31.1-.02.2.08.92.4-4.23 4-5.37 10.7-12.57 11.5-3.96.43-7.36 2.7-10.67 5.01-4.11 2.86-5 7.27-5.83 11.67-.42 2.16 1.1 1.93 2.44 1.27 4.2-2.06 8.4-4.1 12.25-6.79.18-.1.43-.35.52-.3.39.24.21.54-.02.8" style="fill:#9b50ff;fill-opacity:.1;fill-rule:nonzero;stroke:none" transform="matrix(1.3 0 0 -1.3 57.97 544)"/><path d="M0 0c1.6 6.2-1 10.2-4.82 13.69-.57.52-1.23 1.34-2.1.8-.79-.5-.58-1.5-.47-2.27C-6.74 7.27-3.82 3.72 0 0Zm43.58-28.82c-1.8 8.16-7.75 9.82-13.83 11.31 2.46-6.15 7.65-8.82 13.83-11.3zM9.93-12c.32-.95.62-2.09 1.08-3.16.44-1.03 1-1.53 1.94-.28C15.2-12.47 15.65-4 13.6-.9 12.5.74 11.48.81 10.66-1.15 9.23-4.61 9.18-8.18 9.93-12Zm10.39-21c.57-.73-.04-2.54 1.32-2.73 1.3-.18 1.52 1.53 2.15 2.44 2.83 4.15 2.64 8.89 2.29 13.63-.03.42-.23 1.06-.52 1.2-.77.34-1.33-.24-1.72-.83-2.63-4.09-5.02-8.25-3.52-13.7zM17.55 1.26c.17-.2.43-.6.77-.92 4.42-4.14 10-5.49 15.64-6.46 2.1-.37.93 1.35.55 2.1C32.47 0 22.76 4.13 18.53 2.86c-.73-.22-1.36-.42-.98-1.6Zm20.48-58.63c1.63 7.03 1.01 12.7-3.57 17.51-.54.57-1 1.55-1.9 1.33-1.13-.27-1-1.47-1.1-2.34-.72-6.36 2.3-11.26 6.57-16.5zM2.15 21.4c-1.04-.34-1.88-.48-2.56-.89-1.05-.63-2.8-.95-2.73-2.36.08-1.57 1.9-1.47 3.06-1.75 4.15-.99 8.3-.43 12.43.09 1.1.14 2.92-.76 3.15 1.13.18 1.53-1.23 2.43-2.43 3.17-3.65 2.25-7.44.77-10.92.61zM22.7-6.05c1.25-2.27 2.52-4.54 3.76-6.82.7-1.27 1.82-1.76 3.15-1.98 2.32-.38 4.44-1.4 6.65-2.17 6.24-2.16 8.55-7.3 10.23-13.02.2-.68.59-1.42.06-2.02-.7-.8-1.53-.23-2.22.15a771.8 771.8 0 0 0-10.13 5.56c-.89.5-1.5 1.55-3.34 1.32 1.4-4.45.84-9.3 4.81-12.88 3.6-3.24 4.69-7.64 5.52-12.33.63-3.56-1.18-6.4-1.37-9.64-.1-1.64-1.04-2.2-2.22-.72-5.55 6.96-10.46 14.12-7.47 23.8 1 3.2-.11 6.3-1.14 10.23-1.49-4.92-3.8-8.58-6.04-12.3-.47-.77-.8-1.82-2-1.62-1.03.17-1 1.19-1.3 1.92-3.49 8.3-2.45 15.72 4.15 21.93 1.15 1.08 1.05 1.97.45 3.07-1.8 3.3-3.6 6.63-6.9 9.97.52-5.64-1.2-10.04-3.37-14.3-.47-.9-.73-2.19-2-2.18-1.28 0-1.55 1.28-2 2.21-3.26 6.67-4 13.33 0 19.91.71 1.17.91 2.13-.25 3.1C6.86 7.52 4.25 10.25.5 11.82 3.3 7.56 2.66 2.84 2.86-1.75c.04-.9.3-2.08-.78-2.5-1.04-.4-1.7.52-2.34 1.2-3.6 3.89-7.57 7.52-8.85 13-.14.58-.22 1.17-.38 1.74-.53 1.91 1.11 4.32-.6 5.72-1.9 1.54-4.56 1.67-6.94 2.28-1.33.34-3.99 0-3.67 1.56.44 2.09 2.9.75 4.23.38 5.66-1.59 10.94-3.25 16.45 1.1 2.6 2.05 6.65 1.84 10.2 1.4 3.87-.47 8.02-3.85 9.11-7.46.61-2-.63-2.1-2.07-2.18-4.3-.24-8.58-.56-12.88-.85-.1-.01-.18-.14-.8-.62 5.1-2.85 7.85-9.06 15.02-8.07 3.95.54 7.8-.84 11.59-2.27 4.68-1.77 6.62-5.83 8.52-9.89.93-1.99-.6-2.14-2.06-1.83-4.57.98-9.15 1.94-13.55 3.6-.2.06-.5.23-.57.16-.32-.32-.08-.57.21-.77" style="fill:#9b50ff;fill-opacity:.1;fill-rule:nonzero;stroke:none" transform="matrix(1.3 0 0 -1.3 500.24 41.5)"/><path d="m0 0-1.78-13.74 1.51-.38C3.92-7.79 2.83.54 6.44 7.08l1.4-.22L5.12-7.1C9.69-2.69 9.28 3.83 12.85 8.87c2.95-3.22-.3-5.36-.8-7.83-.45-2.24-2.7-4.7-1.09-6.61 1.73-2.05 4.39-.05 6.62.36 1.73.31 3.38 1.29 6.08.6-5.09-4.83-12.33-2.43-17.4-6.66 5.42-2.06 10.4.8 16.53.32-7.05-5.37-15.35-1.28-22.6-5.77 6.64-1.72 12.05.61 18.22.64-2.14-3.15-4.86-2.68-7.1-3.02-3.78-.58-7.62-.76-11.42-1.23-.9-.11-2.44.04-2.23-1.6.2-1.46 1.46-1.41 2.56-1.29 3.04.34 6.08.75 9.26.42-6.03-4.1-13.89-1.08-20.81-5.14 4.36-1.5 8.25.57 12.9-1.44-3.81-1.76-6.89-1.68-9.7-1.46-4.88.37-8.42-1.47-11.43-5.03-1.53-1.8-3.2-3.5-4.95-5.08-2.62-2.34-4.83-4.23-.46-7.33 2.13-1.5 2.18-3.96-1.2-5.32-4.84-1.95-9.51-4.32-14.28-6.46-1.12-.5-2.44-1.38-3.5-.2-.8.88-.19 2.05.15 3.1 1.82 5.7 3.71 11.39 5.38 17.14 1.06 3.66 2.72 3.6 4.59.85 2.44-3.59 3.97-2.55 7.13-.27 8.87 6.38 10.48 15.4 11.02 25.14.05.96-.48 2.25 1.52 2.91 2.12-4.87-1.17-9.8.06-15.4 5.18 6.29 1.73 14.24 5.84 20.86 1.78-5.27-1.42-9.85.57-15.37C-2.29-14.42-4.95-5.8-1.44.67L0 0" style="fill:#9b50ff;fill-opacity:.1;fill-rule:nonzero;stroke:none" transform="matrix(1.3 0 0 -1.3 71.65 668.88)"/><path d="M0 0c-4.9-.9-10.7 2.67-12.15 7.17-1.15 3.56-.04 6.33 3.22 8.15.95.54 2.18 1.09 2.96-.24.68-1.15-.37-1.73-1.17-2.14-3.2-1.63-3.27-4.14-1.43-6.57C-6.7 3.9-4.04 1.86-.73 3.33c2.9 1.3 4.96 3.64 3.99 7.26a13 13 0 0 1-8.05 8.97c-11.43 4.64-22.98 8.97-34.32 13.8-10.72 4.56-21.43 9.23-31.27 15.57-2.92 1.89-5 4.63-6.3 7.87-1.88 4.73-.9 9.04 2.64 12.51 3.62 3.56 8.1 3.95 12.7 2.03 4.65-1.95 6.9-5.93 7.31-10.65.29-3.25-1.77-5.75-4.88-6.97-2.5-.98-4.87-.55-6.75 1.53-.78.86-1.54 1.9-.52 2.96.87.9 1.73.08 2.43-.53 1.64-1.45 3.2-1.77 5-.15 1.82 1.64 2 3.5 1.33 5.66-1.41 4.53-7.06 7.31-11.5 5.65-4.7-1.75-6.75-7.05-4.47-11.73 1.73-3.57 4.8-5.83 8.11-7.72 14.2-8.12 29.23-14.46 44.51-20.23 6.56-2.48 13.31-4.53 19.4-8.1 6.24-3.63 8.86-8.93 7.29-14.53C4.99 3.22 3 .85 0 0" style="fill:#9b50ff;fill-opacity:.1;fill-rule:nonzero;stroke:none" transform="matrix(1.3 0 0 -1.3 367.03 103.77)"/><path d="M0 0c2.72-3.28 1.86-7.17 1.97-10.79.1-3.02.31-4.65 4.25-4.62 3.72.03 7.48-1.48 11.17-2.47 3.5-.94 3.48-3.79 3.45-6.68-.08-7.64.87-8.55 8.33-8.38 7.44.17 11-3.37 10.12-10.85-.55-4.64 1.48-6.25 5.56-6.55 2.44-.18 4.93-.13 7.33-.53 5.04-.86 7.17-4.22 6.11-9.2-1.35-6.34.68-8.44 7.53-7.86 1.36.12 3.47 1.1 3.78-.84.4-2.55-2.2-1.81-3.58-2-7.99-1.12-11.93 2.72-10.56 10.33.7 3.89-.12 6.3-4.64 6.36-1.42.02-2.83.63-4.26.83-9.56 1.31-9.57 1.3-9.69 11.16-.05 4.3-2.23 6.31-6.89 6.38-9.84.14-11.38 1.58-11.7 11.5-.07 2.36-1.1 3.69-3.26 4.18-1.42.33-2.9.47-4.37.6C.48-18.53-.92-16.99-.85-6.75c.02 5.12-1.63 6.4-8.53 6.7-1.17.05-3.15-.87-3.22.97-.08 2 2.1 1.66 3.44 1.71 3.34.14 6.5-.6 9.16-2.63" style="fill:#9b50ff;fill-opacity:.1;fill-rule:nonzero;stroke:none" transform="matrix(1.3 0 0 -1.3 290.58 449.32)"/><path d="M0 0c0 4.4-.04 8.8.03 13.2.02.97-.56 2.61 1.36 2.46 1.66-.13 1.3-1.6 1.3-2.67.06-8.9.09-17.8.11-26.7 0-.93.27-2.23-1.04-2.35C.22-16.2 0-14.82-.01-13.69-.07-9.13-.04-4.56-.04 0H0" style="fill:#9b50ff;fill-opacity:.1;fill-rule:nonzero;stroke:none" transform="matrix(1.3 0 0 -1.3 109.2 25.75)"/><path d="M0 0c.14 6.82 1.57 13.48 2.48 20.2.13.97-.22 3.5 2.24 2.85 1.85-.48 1.14-2.27.8-3.28-1.67-5.15-1.5-10.57-2.5-15.81-.49-2.55-.24-5.16.52-7.72.32-1.1.83-2.87-1.09-3.17C.77-7.19.36-5.45.08-4.35-.27-2.98 0-1.45 0 0" style="fill:#9b50ff;fill-opacity:.1;fill-rule:nonzero;stroke:none" transform="matrix(1.3 0 0 -1.3 79.04 44.71)"/><path d="M0 0c.3-2.9-.48-6.84.69-10.67.28-.92.27-2.06-.92-2.46-1.68-.56-2.31 1.3-2.24 1.89.86 6.98-3 13.9-.32 20.9.37.96.68 2.04 1.78 1.94 1.37-.11.98-1.44 1-2.32C.02 6.5 0 3.74 0 0" style="fill:#9b50ff;fill-opacity:.1;fill-rule:nonzero;stroke:none" transform="matrix(1.3 0 0 -1.3 93.23 35.08)"/><path d="M0 0c-.75 10.45-.73 20.9-.2 31.35h1.88V-.03L0 0" style="fill:#9b50ff;fill-opacity:.1;fill-rule:nonzero;stroke:none" transform="matrix(1.3 0 0 -1.3 98.99 52.18)"/><path d="M0 0c.25-2.8.57-6.18.84-9.55.07-.77.2-1.7-.78-2.07-.94-.36-1.4.32-1.91.99C-3.1-9.01-3.2 3.16-1.92 4.75c.4.51.85 1 1.6.77.75-.24.86-.93.81-1.57C.41 2.83.22 1.71 0 0" style="fill:#9b50ff;fill-opacity:.1;fill-rule:nonzero;stroke:none" transform="matrix(1.3 0 0 -1.3 120.77 26.9)"/><path d="M0 0c1.23 0 2.14-.31 2.82-.95C3.98-2.05 4-3.8 3.88-5.2c-.12-1.3-.32-2.59-.51-3.84a34.66 34.66 0 0 1-.6-6.35c.42.3.74.67 1.1 1.07l.37.4L19.9 2.94l15.76 16.97c2.14 2.3 4.37 4.58 6.51 6.78l3.5 3.6c1.36 1.43 1.47 1.79.74 2.6l-1.72 1.94c-3.02 3.4-6.13 6.92-9.74 9.81-1.7 1.36-2.75 1.31-4.33-.2C15.25 29.72 1.15 14.04-11.8-.7a3.49 3.49 0 0 0-.24-.24l.2.02.3.02 2.99.2c2.4.14 4.88.28 7.28.6.46.07.88.1 1.27.1Zm1.77-18.2a1.12 1.12 0 0 0-1.1.99c-.37 3.04.06 5.82.48 8.5.2 1.27.4 2.47.5 3.69.1 1.3-.02 2.12-.38 2.46-.34.32-1.11.41-2.24.26-2.48-.33-5-.48-7.45-.63l-2.96-.19-.24-.02c-.69-.06-2.1-.2-2.8 1.22-.65 1.32.36 2.18.73 2.5l.2.19C-.5 15.55 13.64 31.27 29.08 46.05c2.4 2.29 4.7 2.4 7.28.33 3.76-3.02 6.94-6.6 10.02-10.08l1.7-1.92c2.23-2.49.27-4.53-.79-5.62l-3.5-3.62a430.9 430.9 0 0 1-6.48-6.75c-5.26-5.64-10.5-11.3-15.76-16.96A10863 10863 0 0 0 5.88-15.44l-.33-.37c-.75-.83-1.67-1.87-3.5-2.35a1.1 1.1 0 0 0-.27-.04" style="fill:#9b50ff;fill-opacity:.1;fill-rule:nonzero;stroke:none" transform="matrix(1.3 0 0 -1.3 323.09 281.58)"/><path d="M0 0c-1.1 0-2.1-.28-2.94-.86-2.57-1.8-2.6-5.8-.07-10.22.46-.8.93-1.63 1.5-2.31 5.87-7.05 13.35-13.02 22.87-18.24.97-.54 1.74-.73 2.12-.54.36.19.63.89.74 1.92l1.54 14.22.62 5.67a47.64 47.64 0 0 1-3.53 16.07c-1.03 2.53-2.52 3.82-4.43 3.76-2.06-.04-2.96-1.69-4.1-4.2-1.22-2.74-1-5.74-.8-8.64l.05-.4c.1-.86.29-2.46-1.4-3.13-1.69-.68-2.62.57-3.11 1.25l-.29.36-.39.47c-.39.46-.76.9-1.16 1.3C4.93-1.22 2.28 0 0 0Zm23.12-34.2c-.78 0-1.68.28-2.71.85C10.67-28 3-21.88-3.03-14.65c-.67.82-1.19 1.72-1.7 2.6C-7.78-6.7-7.52-1.67-4.05.74-.66 3.1 4.54 1.92 8.6-2.13c.47-.46.88-.96 1.29-1.44l.37-.45.37-.47c.52-.7.57-.69.79-.6.22.09.3.12.18 1.09l-.05.48c-.22 3.15-.46 6.4.98 9.6 1.06 2.35 2.38 5.28 5.84 5.35 2.73.04 4.96-1.72 6.3-4.99a49.57 49.57 0 0 0 3.67-16.8v-.07l-.63-5.8-1.54-14.23c-.2-1.8-.78-2.92-1.8-3.45-.38-.2-.8-.3-1.26-.3" style="fill:#9b50ff;fill-opacity:.1;fill-rule:nonzero;stroke:none" transform="matrix(1.3 0 0 -1.3 248.4 689.1)"/><path d="m0 0-3.59 4.28-3.4-2.84L0 0Zm-27.58-54.57 2.42 2.55-5.42 3.98-.61-.72 3.6-5.8zM7.32-6.16c-3.5-3.28-3.04-4.73 2.1-7.25l-2.1 7.25Zm-33.94-38.28-2.72-2.23c4.79-4.96 5.13-5.04 7.37-1.9l-4.65 4.13zm-4.52 34.7c4.35-6.67 4.35-6.67 7.33-5.34-1.89 2.54-2.9 6.1-7.33 5.34zM-2.78 5.41c6.63-6.8 5.94-6.52 7.88-3.9L-.57 7.48-2.78 5.4Zm5.47 5.05c-2.5-2.15-2.5-2.15 3.7-8.2l2.34 1.6-6.04 6.6ZM9.8 4.82c1.7 4.64-2.3 5.98-3.89 8.81L3.27 11.8 9.8 4.82Zm-3.83-26.3-6.06 6.51c-.85-1.02-1.5-1.77-2.1-2.5 5.82-6.76 5.82-6.76 8.16-4zM-25.9-43.43l5.3-4.53 3.45 3.22-5.61 4.65-3.14-3.34zm16.04 17.97 6.74-5.89 2.76 3.12-6.34 5.15-3.16-2.38zm6.65 6.99-2.8-3.4 6.64-5.38 2.2 2.34-6.04 6.44zm-11.14-12.2-3.07-3.55 5.55-5.09 3.38 2.44c-2 2.1-3.68 3.9-5.86 6.2zm10.4-1.7-6.52 5.62-2.9-3.37 5.68-5.39 3.73 3.14zM-16.14-43.9l3.56 3.38-5.75 5.36-3.52-3.9 5.71-4.84zm26.75 26.7L3.5-10.45.74-13.98l6.61-6.2 3.27 2.99zM7.88 17.1l-1.15 1.98c-7.49.34-14.97.7-22.46 1-2.46.1-4.11-.8-5.28-3.26-2.05-4.29-4.63-8.31-6.9-12.5-1.88-3.5-3.63-7.08-5.73-11.2 4-.63 7.27-1.23 10.56-1.62 3.98-.47 3.96-.54 2.6-4.34-3.47-9.73-6.8-19.52-10.16-29.29-.34-.98-.54-2.01-1-3.76 7.85 7.1 34.85 36.2 37.1 42.41L-10.83.11l18.72 17zM6.18-.45c1.33-2.04 2.55-3.25 3-4.7 1.27-4.07 3.75-8.61 2.87-12.28-.87-3.63-5.11-6.57-8.13-9.55-9.77-9.62-19.68-19.11-29.49-28.7-1.58-1.53-2.5-1.45-3.96.35-3.71 4.58-5.13 9.19-2.86 15.07 2.72 7.07 4.65 14.45 6.95 21.76-.06.04-.22.3-.4.32-7.54.7-9.53 2.79-9.9 10.5-.04.8.13 1.7.5 2.4 4.58 8.48 9.17 16.96 13.89 25.37.48.86 1.85 1.79 2.76 1.75 9.4-.46 18.78-1.07 28.16-1.78.65-.05 1.45-1.15 1.75-1.93.5-1.32.68-2.77.98-4.16C13.6 8.05 13.72 2.59 6.8-.16c-.3-.12-.52-.47-.75-.73-.08-.08-.08-.22.14.43" style="fill:#9b50ff;fill-opacity:.1;fill-rule:nonzero;stroke:none" transform="matrix(1.3 0 0 -1.3 231.82 385.8)"/><path d="m0 0-6.35 2.17V-8.14L0 0Zm12.43-15.85 7.85 8.8-9.16 3.14 1.31-11.94zm1.81-14.19 9.7 6.43-11.25 4.15 1.55-10.58zM-7.96 2.1c-4.35-2.5-8.1-4.64-12.36-7.1l12.36-4.08V2.09zm32.63-23.74L21.26-8l-8.42-9.3 11.85-4.35zM-8.64-11.1-21.8-6.76l4.34-13.63 8.82 9.3zm3.03-30.48c.64-.4.88-.63.95-.59 5.56 3.5 11.12 7 16.63 10.57.49.32.93 1.23.86 1.81-.38 3.4-.93 6.76-1.43 10.14l-.9.3-16.11-22.23zm-2.03 28.7-.78.15c-2.46-2.61-5-5.17-7.34-7.89-.55-.64-.93-1.95-.66-2.7 2.28-6.53 4.74-12.98 7.14-19.46l.64.1 1 29.8zm1.5 2.94 17.04-6.48c0 .9.04 1.32 0 1.73-.34 2.93-.82 5.86-1 8.8-.1 2.02-.99 2.92-2.87 3.5C1.3-.62 1.33-.55-2.4-5.23l-3.74-4.71zm15.87-8.23-16.36 6.12v-28.73L9.73-18.17zm17.29-4.3c-.4-.64-.78-1.9-1.62-2.45C14.53-32.15 3.6-39.28-7.33-46.44c-1.75-1.14-2.71.07-3.17 1.38-4.51 12.77-8.96 25.55-13.3 38.38-.22.64.45 2.04 1.1 2.45 4.06 2.5 8.2 4.86 12.37 7.18 2.38 1.33 4.6 1.5 7.43.36C4.77.24 12.66-2.3 20.5-4.93c1.96-.66 2.82-1.72 3.22-3.76.88-4.45 2.1-8.84 3.3-13.78" style="fill:#9b50ff;fill-opacity:.1;fill-rule:nonzero;stroke:none" transform="matrix(1.3 0 0 -1.3 34.58 132.5)"/><path d="M0 0c4.7.87 7.4 4.34 7.7 10.04L0 0Zm-13.6 1.6c-1.6-2.3-3.1-4.16-4.13-6.25-.17-.35 2.21-2.61 2.53-2.43 2.06 1.16 3.87 2.75 6.01 4.4-1.68 1.63-2.77 2.68-4.4 4.28zM6.95 21.99C8.35 10.95 1.04 5.16-7.07-.66 2.91.73 10.79 13.94 6.95 21.99ZM-11.78 2.88C.42 13.17 4.73 19.3 3.43 25.24 1.6 14.86-9.55 12.06-11.77 2.88ZM1.85 21.74l-.56.42c-2.81-1.45-5.66-2.85-8.43-4.37-4.88-2.66-6.95-7.27-5.4-11.48l14.4 15.43zm4.18-.79C2.71 16.77-.7 12.37-4.25 8.07c-1.53-1.85-3.4-3.43-5-5.23-.36-.42-.28-1.25-.4-1.88.63-.07 1.38-.37 1.9-.15C-1.01 3.65 8.11 13.76 6.02 20.95Zm-62.35-77.69c2.77 2 6.05 3.57 8.24 6.07 10.97 12.52 21.51 25.41 29.23 40.28.46.89-.04 2.27-.1 3.42-1.02-.26-2.26-.26-3.04-.85-3.85-2.9-7.66-5.87-11.33-9-9.38-7.98-18.7-16.05-25.19-26.73a21.25 21.25 0 0 1-2.82-6.92c-.64-3.41 1.46-5.66 5-6.27zm59.6 88.56c1.78-2.28 4.01-4.34 5.24-6.88 3.03-6.26 3.02-12.78.5-19.3C6.83-.11 2.6-2.97-3.45-3.1c-2.7-.05-4.94-.42-6.32-3.11a4.37 4.37 0 0 0-2.38-2.13c-3.9-1-4.97-4.44-6.98-7.22a1191.37 1191.37 0 0 0-26.25-35.47c-2.16-2.79-5.62-5.04-8.95-6.36-5.95-2.37-10.78 2.26-9.01 8.45a29.46 29.46 0 0 0 4.27 8.7c9.17 12.97 21.41 22.83 33.66 32.7 3.6 2.92 6.73 6.43 9.94 9.8.5.52.42 1.77.34 2.66-.72 8.32 1.39 12.44 9.11 15.66 4.94 2.05 7.42 5.5 7.97 10.71l1.35.52" style="fill:#9b50ff;fill-opacity:.1;fill-rule:nonzero;stroke:none" transform="matrix(1.3 0 0 -1.3 258.8 183.5)"/><path d="m0 0 9.63 8.49c-1.4 1.71-2.94 3.34-4.12 5.2-.45.72-.04 1.96-.03 2.97.96-.21 2.2-.12 2.82-.7 1.64-1.5 3.03-3.3 4.79-5.31 1.62 1.07 3.1 2.35 4.82 3.1 1.4.6 3.09.56 4.65.8-.88-1.35-1.6-2.86-2.7-4-1.09-1.12-2.57-1.86-3.44-2.46L18.32.5l-6.9 3.74L1.6-2.1 0 0" style="fill:#9b50ff;fill-opacity:.1;fill-rule:nonzero;stroke:none" transform="matrix(1.3 0 0 -1.3 347.96 328.93)"/><path d="m0 0-1.77-1.15c-.31.47-.72.96-1.16 1.49C-4.04 1.68-5.19 3.07-5 4.58c.3 2.53 2 5.4 4.04 6.85 1.24.88 3.03.47 4.76.07.68-.16 1.31-.3 1.88-.37l1.22-.14-.82-3.03-2.05.55.2.73-.9.2c-1.1.25-2.6.6-3.07.27A8.61 8.61 0 0 1-2.9 4.34c-.07-.62.86-1.75 1.62-2.66C-.84 1.14-.37.57 0 0Zm-13.35-18.18c-4.23.27-6.45 2.48-6.8 6.74-.34 4.14 1.75 7.11 5.74 8.16 2.63.68 6.38 1.14 8.68-2.83l-1.83-1.05c-1.25 2.15-3.08 2.68-6.3 1.84-3-.78-4.44-2.84-4.18-5.95.26-3.2 1.66-4.6 4.82-4.8zm12.16-7.06c5.9-.91 12.92 3.38 17.27 10.94 2.02 3.5 2.52 6.34 1.47 8.04-.47-.98-.91-2-1.34-3-1.52-3.5-3.09-7.11-5.75-9.73-2.62-2.58-6.26-4.05-9.77-5.48-.62-.25-1.25-.5-1.88-.77zm15.71 5.14c-5.6-6.35-13.18-9.03-19.15-6.29l-2.02.93 2 .98c1.46.71 3.03 1.35 4.54 1.96 3.48 1.41 6.76 2.74 9.08 5.03 2.37 2.32 3.86 5.75 5.3 9.06.64 1.5 1.3 3.03 2.05 4.46l.56 1.07.99-.69c1.46-1.02 4.4-4.21.05-11.76-1.01-1.75-2.15-3.34-3.4-4.75zm9.15-11.01c1.56.61 3.09 1.17 4.58 1.72 3.92 1.43 7.63 2.78 10.74 4.85 3.08 2.04 4.73 4.23 4.9 6.51.18 2.47-1.33 5.16-4.5 8-1.02.92-1.81 3.16-1.26 4.55l.07.17c1.88 4.68 2.82 7.03 2.42 8.86-.4 1.85-2.25 3.62-5.93 7.16l-.46.44.18.62c2.97 9.78.72 17.95-5.74 20.82-6.6 2.93-11.7 3.62-22.28-12.87l-.67-1.03-1.67 1.45c-.53.46-1.05.9-1.55 1.38-2.08 1.96-4.53 2.83-6.72 2.37-1.96-.4-3.57-1.87-4.52-4.12-1.92-4.5-4.6-4.7-8.19-4.49-5.6.33-10.44-1.6-13.26-5.3-2.6-3.43-3.15-7.86-1.56-12.5 1.4-4.07.8-6.48-2.39-9.54-2.23-2.15-3.16-4.94-2.54-7.66.63-2.77 2.8-5.02 5.78-6.01.87-.29 1.57-.82 2.25-1.32l.8-.59 1-.65-.76-.9c-.22-.26-.42-.54-.62-.81-.5-.7-1.02-1.4-1.77-1.94-4.31-3.1-5.87-7.49-4.75-13.42.78-4.09 1.55-6.83 5.09-7.7 3.78-.93 7.08.27 10.07 3.67l.1.11c.75.87 1.51 1.73 2.46 2.8l3.01 3.42.45-2.05c.17-.8.28-1.46.37-2.02.13-.83.22-1.37.42-1.68.36-.56.74-1.22 1.13-1.9.67-1.15 2.05-3.56 2.68-3.58 3.23-.1 7.44.84 8.88 2.72 2.67 3.51 5.12 4.06 8.7 3.84 5.55-.35 9.47.74 11.67 3.23l.04.04c1.98 2.28 2.6 5.8 1.87 10.46l-.97-.4.57 2.08.08.3c.01.32.12.74.52 1l.6.4.6-.43.08-.07zm19.97 7.76c-.9-1.03-2.06-2.01-3.47-2.95-3.33-2.2-7.15-3.6-11.2-5.07-1.55-.57-3.15-1.16-4.77-1.8.96-5.56.2-9.82-2.28-12.67l-.05-.05c-2.65-3-7.16-4.34-13.39-3.95-3.1.2-4.74-.18-6.88-3-1.96-2.6-6.9-3.67-10.64-3.55-1.81.05-3.09 2.28-4.45 4.64a36.3 36.3 0 0 1-1.07 1.79 5.6 5.6 0 0 0-.7 2.3l-.19-.22c-.93-1.05-1.7-1.91-2.44-2.78-3.58-4.06-7.67-5.57-12.28-4.45-5.13 1.26-5.97 5.75-6.66 9.36-1.27 6.72.61 11.94 5.6 15.52a6.57 6.57 0 0 1 1.3 1.49c-.57.43-1.1.83-1.63 1-3.7 1.23-6.39 4.05-7.18 7.56-.79 3.46.35 6.98 3.13 9.63 2.62 2.52 3 4.03 1.86 7.35-1.8 5.24-1.12 10.5 1.88 14.45 3.24 4.26 8.74 6.5 15.06 6.14 3.44-.2 4.76.02 6.12 3.2 1.23 2.91 3.38 4.81 6.04 5.37 2.87.6 6.01-.47 8.6-2.91.43-.4.87-.78 1.32-1.17 11.02 16.77 17.27 15.74 24.26 12.64 7.24-3.22 10.05-12.3 7.1-22.74 7.5-7.23 7.52-7.92 3.54-17.88l-.07-.16c-.17-.42.22-1.76.72-2.2 3.67-3.3 5.41-6.57 5.18-9.72a8.75 8.75 0 0 0-2.36-5.17" style="fill:#9b50ff;fill-opacity:.1;fill-rule:nonzero;stroke:none" transform="matrix(1.3 0 0 -1.3 160.86 674.38)"/><g clip-path="url(#a)" transform="matrix(1.3 0 0 -1.3 0 755.9)"><path d="M0 0c-5.3 0-10.35-2.14-15.42-6.5-6.72-5.8-9.12-13.83-11.18-22.24-1.6-6.56-.52-12.86 3.04-17.75 3.6-4.93 9.36-7.93 16.22-8.45 4.55-.34 6.91.02 8.16 1.25 1.2 1.18 1.62 3.42 1.41 7.64a65.72 65.72 0 0 0-3.84-.25c-6.7 0-12.7 4.38-14.62 10.66-1.95 6.38-.05 13.48 5.07 18.98 5.07 5.45 12.24 7.94 18.71 6.5a54.7 54.7 0 0 1 2.15-.41l.16-.03c1.45 4.09 1.7 6.44.85 7.79-.96 1.5-3.47 2.26-8.99 2.74C1.15-.02.57 0 0 0Zm-4.43-57.02c-.95 0-1.97.05-3.06.13-7.44.57-13.71 3.85-17.66 9.25-3.9 5.36-5.1 12.24-3.36 19.37 2.13 8.73 4.64 17.07 11.8 23.24 6.04 5.2 12.13 7.46 18.6 6.9 5.33-.46 8.94-1.22 10.48-3.64 1.5-2.37.7-5.82-.95-10.28a.99.99 0 0 0-1.1-.62l-.97.17c-.73.13-1.48.27-2.23.43-5.79 1.3-12.25-.98-16.84-5.92-4.57-4.91-6.34-11.46-4.63-17.08a13.33 13.33 0 0 1 12.73-9.28c1.05 0 2.14.1 3.2.2.5.05 1 .1 1.5.13.27.02.52-.07.72-.24.2-.17.32-.41.33-.67.31-4.64.1-8.15-1.93-10.15-1.5-1.47-3.75-1.94-6.63-1.94" style="fill:#9b50ff;fill-opacity:.1;fill-rule:nonzero;stroke:none" transform="translate(262.45 56.44)"/></g><path d="M0 0c16.87-.93 25.38-11.6 30.6-22.83l-.16 2.51c-.48 7.03-.94 13.66 1.12 19.6 2.03 5.86 6.5 10.67 11.21 15.76 1.28 1.39 2.6 2.8 3.86 4.24-12.95-2.26-26.75-2.64-36.74 9.27C12.35 17.96 11.58 7.36 0 0Zm32.1-30.9c-.5 0-.97.3-1.16.8C23.36-9.83 12.66-1.56-4.78-2.47a1.23 1.23 0 0 0-.6 2.35C12.05 8.03 10 21.91 5.2 35.68a1.24 1.24 0 0 0 2.27.98c9.02-17.04 22.8-18.11 42.11-14.31.5.1 1.03-.13 1.3-.58.27-.44.23-1-.1-1.4a132.73 132.73 0 0 0-6.17-7c-4.54-4.9-8.84-9.53-10.7-14.89-1.89-5.47-1.45-11.86-.99-18.63.22-3.1.43-6.3.43-9.52a1.24 1.24 0 0 0-1.24-1.24" style="fill:#9b50ff;fill-opacity:.1;fill-rule:nonzero;stroke:none" transform="matrix(1.3 0 0 -1.3 230.01 609.23)"/><path d="M0 0c6.82-8.43 19.73-8.87 26.73-2.28C21.64 6.62 7.2 8.28 0 0Zm29.13 24.71C22.04 33.4 8.9 33.24 2.42 26.93c5.68-9.42 20.05-10.2 26.71-2.22Zm-28.75.37C-5.48 19.53-6.39 8.63-1.57 2.15a19.15 19.15 0 0 0 15.73 5.68A19.32 19.32 0 0 0 28.8-.5c6.5 6.78 6.3 17.38 1.95 22.9-8.72-8.62-23.5-7.2-30.36 2.68zm12.23-34.4C.59-8.22-8.32 2.48-7.13 14.36A21.87 21.87 0 0 0 16.57 34a21.78 21.78 0 0 0 19.69-23.99C35.14-1.64 24.4-10.42 12.6-9.32" style="fill:#9b50ff;fill-opacity:.1;fill-rule:nonzero;stroke:none" transform="matrix(1.3 0 0 -1.3 386.26 382.35)"/><path d="m0 0 .24-.48c3 .1 5.87.74 8.62 2.38-.56.64-.94 1.18-1.44 1.6-.3.25-.91.55-1.14.41C4.16 2.66 2.08 1.31 0 0Zm18.43 20.3c.16 4.14-3.54 11.1-7.55 12.98 1.38-4.98 3.56-9.33 7.55-12.98zM-8.57 2l.15-.6c.83-.34 1.67-.65 2.5-1 1.27-.57 2.31-.45 3.48.49C-.63 2.35 1.38 3.56 3.3 4.88c.57.39 1.14.76 1.8 1.19L2.44 9.33-8.57 2Zm-3.84 16.7a90627 90627 0 0 1-3.45 9.9c-2.79-2.97-4.23-11.01-2.51-14.32l5.96 4.42zm-1.64-13.27c1.14-.96 1.83-1.64 2.62-2.16.27-.19.9-.17 1.17.02C-6.54 5.92-2.84 8.59 1 11.35l-2.2 3.1-12.84-9.02Zm3.9 14.6 4.18 2.18-3.64 12.54c-1.11-.83-2.35-1.71-3.51-2.68-.3-.25-.53-.8-.48-1.18.48-3.76 1.5-7.36 3.45-10.85zM4.88 36.28c.88-9.76 6.51-16.75 13.02-23.74.28 1.44.58 2.5.65 3.59.03.5-.24 1.21-.62 1.52-5.06 4.1-7.9 9.49-9.42 15.67-.57 2.29-.89 2.56-3.63 2.96zM-2.4 16.42c-.7 1.2-1.47 2.48-2.25 3.79-4.72-2.08-8.75-4.91-12.59-8.04-.25-.2-.48-.77-.37-1.01.65-1.39 1.4-2.72 2.06-3.97l13.15 9.23zm-1.36 20.3c-3.3-.41-3.36-.47-2.92-3.49.14-.95.34-1.9.58-2.83C-3.97 22.42.45 15.68 5.51 9.32c1.7-2.13 3.54-4.14 5.4-6.31.95.83 1.68 1.49 2.43 2.16C4.7 14.23-2.95 23.6-3.76 36.72ZM14.71 7.06c2.47 2.41 2.38 2.78.4 5.12-2.61 3.1-5.26 6.22-7.51 9.58-3.04 4.54-4.94 9.56-4.94 15.28l-4.12.13C-.68 24.43 6.7 15.6 14.71 7.07ZM6.1 39.24c-1.84 1.15-3.62 2.4-5.52 3.41-3.8 2.03-5.43 5.57-3.98 9.11.72 1.75 1.84 3.23 3.7 3.85.56.2 1.64.03 1.92-.37.58-.81-.15-1.28-.93-1.66-3.62-1.76-3.92-5.94-.6-8.23 2.17-1.5 4.4-2.93 6.57-4.43a3 3 0 0 0 1.03-1.11c1.13-2.46 3.34-3.83 5.31-5.49 7.28-6.1 9.41-16.1 5.43-24.97C15.38 1.18 6.17-3.82-2.96-2.6-18.74-.51-26.7 17.64-17.5 30.62c4.87 6.87 13.7 10.18 22.2 8.3l1.17-.23.25.55" style="fill:#9b50ff;fill-opacity:.1;fill-rule:nonzero;stroke:none" transform="matrix(1.3 0 0 -1.3 450.1 105.84)"/><path d="M0 0a7.43 7.43 0 0 1 14.83-1.28A7.44 7.44 0 0 1 0 0Zm17.33-1.5A9.95 9.95 0 0 0-2.5.22 9.95 9.95 0 0 0 17.33-1.5" style="fill:#9b50ff;fill-opacity:.1;fill-rule:nonzero;stroke:none" transform="matrix(1.3 0 0 -1.3 505.52 240.7)"/><path d="M0 0c4.24-1.5 14.1-5.94 21-16.35 4.48-6.78 4.68-12.4 4.9-18.34.2-5.86.44-12.5 4.83-21.7C37.54-70.66 53.7-71.6 60.03-71.4c-3.6 2.88-10.47 9.5-12.2 19-.62 3.4-.4 7.6-.14 12.45.7 13.08 1.58 29.37-14.34 39.42C18.29 8.98 4.68 2.75 0 0Zm65.5-72.8-2.62-.36c-.25-.04-24.78-3.21-33.93 15.93-4.56 9.56-4.8 16.42-5.02 22.47-.21 5.9-.4 11-4.58 17.33C11-4.79-2.39-1.29-2.52-1.26l-2 .5L-2.88.49c.18.13 17.86 12.9 37.27.65C51.3-9.54 50.35-27.18 49.65-40.06c-.25-4.73-.47-8.81.11-11.99 2.17-11.9 13.4-19.25 13.52-19.32l2.21-1.43" style="fill:#9b50ff;fill-opacity:.1;fill-rule:nonzero;stroke:none" transform="matrix(1.3 0 0 -1.3 465.58 119.66)"/><path d="m0 0-13.1.63.1 1.95 9.48-.45-4.94 8.43 12 3.59.56-1.88-9.6-2.87L0 0" style="fill:#9b50ff;fill-opacity:.1;fill-rule:nonzero;stroke:none" transform="matrix(1.3 0 0 -1.3 502.73 135.7)"/><path d="M0 0c-.45 1.63-.84 3.23-1.22 4.79-1 4.1-1.96 7.97-3.71 11.29-1.73 3.27-3.79 5.08-6.12 5.39-2.52.33-5.47-1.06-8.77-4.13-1.08-1-3.48-1.68-4.84-1.03l-.17.08c-4.6 2.2-6.9 3.3-8.83 3-1.95-.31-4-2.1-8.08-5.66l-.52-.45-.61.23C-52.6 17.13-61.27 15.3-65 8.85c-3.8-6.58-5.13-11.78 10.58-23.57l.98-.74-1.7-1.63c-.53-.52-1.05-1.03-1.6-1.5-2.27-2.03-3.46-4.48-3.25-6.75.18-2.03 1.5-3.76 3.7-4.88 4.4-2.22 4.28-4.98 3.64-8.64-1-5.73.4-10.78 3.88-13.89 3.2-2.86 7.7-3.69 12.67-2.33 4.36 1.2 6.78.45 9.54-3a7.92 7.92 0 0 1 7.58-3.05c2.93.48 5.5 2.56 6.89 5.57a8.8 8.8 0 0 0 1.63 2.21c.24.27.48.53.7.8l.78.97.85-.82c.23-.24.5-.46.75-.68a7.7 7.7 0 0 0 1.79-1.93c2.67-4.6 7-6.45 13.25-5.65 4.3.55 7.22 1.18 8.54 4.76 1.4 3.82.56 7.26-2.57 10.53l-.1.1-2.6 2.69-3.15 3.29 2.16.33c.85.13 1.54.2 2.13.26.86.09 1.43.14 1.77.33.63.35 1.35.7 2.1 1.05 1.27.62 3.91 1.9 4 2.53.5 3.31.04 7.67-1.73 9.26-3.3 2.93-3.57 5.48-2.9 9.14 1.02 5.65.37 9.74-1.94 12.14l-.03.03C11.24-2.06 7.69-1.2 2.79-1.68l.3-1.02-2.07.7-.3.1c-.33.04-.76.16-.98.59l-.33.65.51.58L0 0Zm-5.6 20.9c.95-.98 1.82-2.22 2.62-3.73C-1.11 13.64-.13 9.64.9 5.42c.4-1.63.81-3.3 1.28-5 5.84.66 10.13-.37 12.77-3.08l.05-.05c2.78-2.89 3.6-7.58 2.46-13.94-.58-3.17-.39-4.86 2.26-7.22 2.43-2.17 2.95-7.28 2.39-11.1-.28-1.86-2.73-3.04-5.32-4.29-.7-.34-1.39-.67-1.97-1-.71-.38-1.45-.48-2.45-.58l.2-.2 2.56-2.67c3.76-3.9 4.83-8.18 3.11-12.83-1.9-5.18-6.63-5.78-10.43-6.27-7.07-.9-12.22 1.32-15.31 6.64-.3.5-.81.94-1.36 1.4l-.02.03v-.01c-.51-.56-.99-1.08-1.23-1.62-1.7-3.71-4.94-6.3-8.64-6.9a9.92 9.92 0 0 0-9.55 3.77c-2.27 2.83-3.78 3.31-7.34 2.33-5.61-1.54-10.95-.53-14.65 2.77-4 3.57-5.65 9.33-4.51 15.79.61 3.5.55 4.87-2.57 6.45-2.85 1.43-4.55 3.74-4.8 6.5-.27 2.98 1.2 6.13 4.03 8.64.46.41.9.84 1.36 1.28C-72.72-3.47-70.92 2.87-66.88 9.85c4.18 7.22 13.87 9.56 24.26 5.92 8.35 7.26 9.07 7.25 18.84 2.59l.16-.08c.4-.2 1.84.12 2.36.6 3.83 3.57 7.41 5.16 10.62 4.74a8.47 8.47 0 0 0 5.04-2.71" style="fill:#9b50ff;fill-opacity:.1;fill-rule:nonzero;stroke:none" transform="matrix(1.3 0 0 -1.3 534.82 302.22)"/><path d="M0 0c-.46-5.25 1.24-10.46 5.17-15.86 5.21-7.18 13.04-10.25 21.27-13.02 6.43-2.16 12.83-1.63 18.02 1.48 5.24 3.14 8.74 8.6 9.86 15.36.73 4.48.58 6.86-.54 8.2-1.08 1.29-3.29 1.9-7.52 2.06v-.48c0-1.1.01-2.22-.08-3.35A15.28 15.28 0 0 0 34.24-19.2c-6.55-1.38-13.48 1.12-18.54 6.68C10.69-7.01 8.82.3 10.8 6.6c.22.7.42 1.41.6 2.1l.04.15c-3.96 1.8-6.29 2.25-7.7 1.52C2.15 9.56 1.17 7.13.21 1.7.12 1.14.05.57 0 0Zm56.65-9.34c-.08-.94-.22-1.95-.4-3.02-1.2-7.34-5.03-13.27-10.77-16.71-5.7-3.42-12.69-4-19.67-1.66-8.55 2.87-16.68 6.08-22.23 13.72-4.68 6.44-6.4 12.68-5.3 19.05C-.78 7.3.3 10.8 2.85 12.12c2.5 1.29 5.89.2 10.2-1.84.44-.2.66-.69.53-1.15l-.26-.93c-.2-.72-.4-1.45-.63-2.18C10.9.4 12.62-6.2 17.16-11.2c4.52-4.96 10.91-7.29 16.69-6.07A13.3 13.3 0 0 1 44.22-5.44c.09 1.04.08 2.12.08 3.17v1.51a.98.98 0 0 0 1 .96c4.67-.09 8.16-.6 9.99-2.79 1.34-1.6 1.61-3.88 1.36-6.75" style="fill:#9b50ff;fill-opacity:.1;fill-rule:nonzero;stroke:none" transform="matrix(1.3 0 0 -1.3 401.37 220.06)"/><path d="M0 0c2.39 16.66 13.8 24.18 25.49 28.39l-2.53.05c-7.07.13-13.74.26-19.51 2.81-5.68 2.52-10.1 7.37-14.8 12.5a209.1 209.1 0 0 1-3.9 4.19c1.14-13.05.33-26.77-12.45-35.65C-16.9 13.82-6.36 12.13 0 0Zm33.7 29.18c-.05-.51-.4-.95-.9-1.09C11.84 22.32 2.65 12.43 2.05-4.96a1.24 1.24 0 0 0-2.4-.38C-7 12.64-21.05 11.81-35.26 8.24a1.23 1.23 0 0 0-.78 2.34c17.83 7.47 20.1 21.05 17.97 40.54a1.24 1.24 0 0 0 2.09 1.03c2.28-2.17 4.4-4.5 6.46-6.74C-5 40.48-.74 35.8 4.46 33.5c5.3-2.35 11.74-2.47 18.54-2.6 3.12-.06 6.34-.12 9.57-.4a1.24 1.24 0 0 0 1.13-1.34" style="fill:#9b50ff;fill-opacity:.1;fill-rule:nonzero;stroke:none" transform="matrix(1.3 0 0 -1.3 433.97 191.48)"/><path d="m0 0-1.73-3.2a534.4 534.4 0 0 1-7.36-13.9 11.55 11.55 0 0 1-1.12-5.29c.01-.47-.02-.97-.05-1.48-.13-2.26-.25-4.2 2.81-5.53 3.43-1.48 4.8.28 6.4 2.32l.36.47C4.48-20.1 4.71-11.85 0 0Zm-10.4-29.85c-2.07 1.84-1.93 4.24-1.82 6.1.03.45.05.9.05 1.33-.04 2.25.42 4.4 1.33 6.2 2.38 4.72 4.92 9.41 7.38 13.95l2.71 5.02a.99.99 0 0 0 1.77-.08C4.95-6.5 8.48-18.26.85-27.83l-.36-.45c-1.64-2.11-3.9-5-8.72-2.91a8 8 0 0 0-2.17 1.34" style="fill:#9b50ff;fill-opacity:.1;fill-rule:nonzero;stroke:none" transform="matrix(1.3 0 0 -1.3 380.56 434.48)"/><path d="M0 0c-.12.48-.4 1-.81 1.52-5.3 6.72-12.13 12.33-19.23 15.8-2 .97-3.81.98-5.1 0-1.83-1.36-2.39-4.32-1.46-7.59C-24.2 1.5-15.21-5.07-6.97-4.63c3.2.18 5.92 1.37 6.78 2.96C.09-1.15.15-.59 0 0Zm-29.17 9.48c-1.04 4.04-.1 7.7 2.48 9.64 2.12 1.59 5 1.69 7.9.27 7.42-3.62 14.54-9.46 20.05-16.44C2.72 1.09 3-.9 2.06-2.64c-1.28-2.4-4.81-4.1-8.99-4.32-9.31-.5-19.44 6.82-22.12 16l-.12.44" style="fill:#9b50ff;fill-opacity:.1;fill-rule:nonzero;stroke:none" transform="matrix(1.3 0 0 -1.3 380.98 145.1)"/><path d="m0 0 17.22-23.21c1.57 3.87 4.48 11.07 5.1 12.67.28 1.47-3.07 10.8-6.5 18.95l-.17.41 5.88 12.57L8.5 30.91 19.25 44.9 7.1 63.3l-12.75-14.6 8.42-15.35-8.43-13.43 14.85-9.81Zm17.74-28.64L-3.36-.2 5.35 9.4l-14.49 9.57 8.85 14.1-8.55 15.59 16.5 18.9 14.8-22.42L12.1 31.67l12.66-9.26-6.2-13.25c2.82-6.73 7.2-17.85 6.31-20.12-.86-2.23-5.9-14.67-6.12-15.2l-1-2.48" style="fill:#9b50ff;fill-opacity:.1;fill-rule:nonzero;stroke:none" transform="matrix(1.3 0 0 -1.3 422 500)"/><path d="m0 0 9-13.65 11.7 4.26 5 18.95-13.31 7.09Zm7.67-17.65L-4.04.11 11.43 20.9l18.14-9.66-6.11-23.14-15.8-5.75" style="fill:#9b50ff;fill-opacity:.1;fill-rule:nonzero;stroke:none" transform="matrix(1.3 0 0 -1.3 477.08 506.75)"/><path d="M0 0a8.95 8.95 0 0 1-.63-4.1c.42-3.94 4.17-5.4 9.55-3.72.98.31 2 .63 2.9 1.12 9.5 5.06 18.78 12.57 28.36 22.98.98 1.06 1.54 1.99 1.54 2.55 0 .53-.52 1.13-1.43 1.64l-12.6 7.03-5.02 2.8a37.24 37.24 0 0 1-16.81 1.16c-2.88-.43-4.82-1.89-5.7-4.37-.99-2.68.12-4.41 1.93-6.76 1.96-2.56 4.89-3.35 7.72-4.1l.4-.1c.85-.17 2.44-.5 2.24-2.91-.19-2.4-1.82-3.16-2.7-3.56l-.48-.24-.63-.33c-.63-.34-1.22-.66-1.8-1.03C3.58 5.92 1.12 2.94 0 0Zm43.46 17.65a10.3 10.3 0 0 0-2.13-3.2C31.53 3.8 22-3.9 12.26-9.09A18.5 18.5 0 0 0 9-10.36c-6.54-2.05-11.13.07-11.69 5.4-.55 5.2 3.12 11.5 8.92 15.3.66.44 1.33.8 1.98 1.14l.61.32c.2.11.4.2.62.3.91.43.93.5.95.82.02.3.03.42-.93.62a8.2 8.2 0 0 0-.48.1c-3.07.83-6.24 1.68-8.52 4.66-1.7 2.2-3.8 4.95-2.16 9.43a9.46 9.46 0 0 0 7.76 6.34c6.2.92 12.1.5 17.58-1.23l.06-.03 5.15-2.87c4.22-2.36 8.4-4.7 12.6-7.03 1.58-.89 2.35-2.04 2.35-3.53 0-.56-.11-1.14-.34-1.73" style="fill:#9b50ff;fill-opacity:.1;fill-rule:nonzero;stroke:none" transform="matrix(1.3 0 0 -1.3 489.6 448.43)"/></svg>
